<?xml version="1.0" encoding="utf-8"?>
<svg xmlns="http://www.w3.org/2000/svg" xmlns:xlink="http://www.w3.org/1999/xlink" version="1.1" id="Layer_1" x="0px" y="0px" viewBox="0 0 485 186.5" style="enable-background:new 0 0 485 186.5;">
<style type="text/css">
	.st0{fill:#EA0000;}
	.st1{fill:none;stroke:#000000;stroke-width:2;stroke-miterlimit:10;}
	.st2{fill:#EA0000;stroke:url(#);stroke-miterlimit:10;}
	.st3{fill:#EB0000;}
</style>
<g>
	<path class="st0" d="M110.42,13.9c0.61,3.45-0.23,7.33-2.5,11.63c-5.68,10.62-16.85,18.38-33.52,23.27&#xA;		c1.96,2.72,4.91,3.74,8.87,3.04c3.28-0.58,7.12-2.81,11.51-6.69c4.39-3.88,8.19-6.1,11.39-6.66c3.28-0.58,5.1,0.11,5.44,2.07&#xA;		c0.19,1.08-0.66,2.91-2.55,5.47c-2.18,2.9-3.86,6.92-5.03,12.08c-2.06,9.01-5.81,16.05-11.24,21.12&#xA;		c-5.8,5.48-14.01,9.16-24.61,11.03c-17.34,3.06-26.91-0.52-28.71-10.73c-0.62-3.52,0.13-6.75,2.26-9.71&#xA;		c2.13-2.95,5.34-4.81,9.63-5.57c2.69-0.47,5.04-0.33,7.04,0.43c2,0.76,3.19,2.19,3.56,4.29c0.42,2.37-0.8,4.59-3.64,6.66&#xA;		c-2.85,2.07-4.13,3.92-3.84,5.54c0.54,3.04,3.58,4.07,9.14,3.1c9.17-1.62,15.65-7.71,19.43-18.28c1.34-3.72,2.68-6.44,4.03-8.14&#xA;		c-3.42,2.28-7.69,3.86-12.83,4.77c-5.55,0.98-10.44,0.6-14.65-1.13c-4.21-1.73-7.12-4.69-8.72-8.87&#xA;		c-12.31,0.08-19.16-3.8-20.54-11.65c-0.78-4.39,0.71-8.28,4.45-11.66c3.45-3.05,8-5.07,13.64-6.07c3.54-0.62,6.88-0.86,10.03-0.72&#xA;		c3.61-4.12,8.05-7.76,13.3-10.92c5.57-3.35,11.13-5.52,16.69-6.5c5.64-0.99,10.34-0.92,14.1,0.23&#xA;		C107.03,6.72,109.66,9.57,110.42,13.9z M55.05,26.91c-2.16,0.04-3.88,0.16-5.14,0.38c-4.46,0.79-7.91,2.16-10.34,4.12&#xA;		c-2.89,2.32-4.03,5.21-3.42,8.66c0.92,5.21,5.45,8.03,13.6,8.48C48.62,41.15,50.38,33.94,55.05,26.91z M97.6,13.55&#xA;		c-0.45-2.57-2.41-3.55-5.86-2.94c-6.31,1.11-11.54,6.15-15.69,15.11c3.87,1.27,5.95,2.72,6.23,4.34c0.29,1.62-0.54,2.6-2.47,2.95&#xA;		c-0.84,0.15-2.86-0.47-6.06-1.86c-1.58,4.81-2.06,8.98-1.44,12.49l0.2,1.12c6.17-2.41,12.03-6.83,17.58-13.25&#xA;		C95.99,24.6,98.49,18.62,97.6,13.55z"/>
	<path class="st0" d="M160.12,43.31c0.12,0.68-0.14,1.45-0.76,2.33c-2.06,3.08-4.11,5.75-6.14,7.99&#xA;		c-7.12,7.88-15.39,12.65-24.81,14.31c-9.17,1.62-14.33-0.82-15.48-7.31c-0.24-1.35-0.28-2.56-0.12-3.64&#xA;		c-0.24,0.11-0.53,0.2-0.87,0.26c-0.67,0.12-1.27,0.07-1.78-0.16c-0.52-0.22-0.82-0.6-0.92-1.15c-0.13-0.74,0.12-1.55,0.74-2.43&#xA;		l1.88-2.63c5.16-7.18,9.43-12.47,12.82-15.86c5.75-5.75,11.53-9.15,17.34-10.17c6.65-1.17,10.39,0.57,11.21,5.24&#xA;		c0.75,4.26-1.74,9.09-7.47,14.49c-4.18,3.87-9.35,7.51-15.52,10.89c-0.05,0.22-0.02,0.63,0.09,1.24c0.44,2.5,1.97,3.52,4.58,3.06&#xA;		c3.87-0.68,7.77-2.9,11.71-6.67c2.08-1.97,4.97-5.3,8.65-10c0.65-0.74,1.4-1.19,2.24-1.33C159.03,41.52,159.9,42.03,160.12,43.31z&#xA;		 M145.1,31.21c-0.15-0.88-0.7-1.24-1.62-1.07c-1.94,0.34-4.44,3.37-7.51,9.07c-2.4,4.6-4,8.31-4.81,11.1&#xA;		c3.2-2.03,6.33-4.95,9.39-8.77C144.04,37.22,145.56,33.78,145.1,31.21z"/>
	<path class="st0" d="M196.51,18.59c0.18,1.01-0.17,2-1.04,2.96c-0.87,0.96-1.94,1.54-3.2,1.77l-7.7,1.36&#xA;		c-5.78,14.97-8.58,22.95-8.4,23.97c0.13,0.75,0.66,1.03,1.58,0.87c2.53-0.44,6.64-4.45,12.33-12.01c0.42-0.56,0.97-0.9,1.64-1.02&#xA;		c1.68-0.3,2.65,0.26,2.9,1.68c0.12,0.68-0.1,1.41-0.65,2.21c-1.11,1.59-2.9,3.96-5.38,7.12c-6.95,7.85-13.83,12.37-20.65,13.58&#xA;		c-5.64,0.99-8.82-0.57-9.55-4.7c-0.55-3.11,1.93-9.75,7.42-19.93l-0.54-0.11c-2.76,4.53-5.49,8.71-8.2,12.53&#xA;		c-0.48,0.71-1.19,1.15-2.11,1.32c-1.6,0.28-2.52-0.29-2.77-1.71c-0.11-0.61,0.04-1.23,0.45-1.86c2.93-4.07,7.21-10.27,12.86-18.59&#xA;		l-1.64,0.29c-2.44,0.43-3.8-0.13-4.07-1.69c-0.45-2.57,1.55-4.25,6.01-5.03l4.17-0.74c1.85-3.25,4.63-8.17,8.33-14.75&#xA;		c1.06-1.37,1.97-2.13,2.73-2.26c1.6-0.28,3.27,0.36,5.03,1.94c1.75,1.57,2.75,3.04,2.99,4.39c0.29,1.62-0.31,4.17-1.78,7.64&#xA;		l5.81-1.02C195.09,16.44,196.23,17.04,196.51,18.59z"/>
	<path class="st0" d="M87.74,118.57c0.17,0.95-0.07,2.07-0.71,3.37c-8.25,16.72-13.65,31.59-16.22,44.59&#xA;		c-0.54,2.82-1.3,4.94-2.26,6.36c-0.97,1.43-2.81,3.01-5.54,4.74c-5.61,3.64-9,5.56-10.18,5.77c-1.35,0.24-2.13-0.25-2.34-1.47&#xA;		c-0.15-0.88,0.07-2.28,0.69-4.2c1.23-3.84,6.11-17.25,14.64-40.23c-1.69,1.76-4.36,3.8-8.03,6.12c-4.13,2.68-7.2,4.2-9.22,4.55&#xA;		c-1.6,0.28-2.5-0.15-2.7-1.3c-0.18-1.01,0.11-2.32,0.87-3.92c0.88-1.9,1.61-3.14,2.21-3.74c0.59-0.59,1.74-1.18,3.46-1.76&#xA;		c10.14-3.53,17.79-8.12,22.95-13.78c1.82-1.99,3.19-3.31,4.12-3.97c1.46-1.09,3.36-1.85,5.72-2.26&#xA;		C86.72,117.19,87.56,117.56,87.74,118.57z"/>
	<path class="st0" d="M132.67,109.82c0.2,1.15-0.14,3.13-1.04,5.94c-0.89,2.81-1.8,4.82-2.71,6.02c-1.05,1.44-2.88,2.39-5.48,2.85&#xA;		c-2.02,0.36-4.92,0.5-8.71,0.44c-3.79-0.06-6.4,0.03-7.83,0.28c-1.77,0.31-3.05,1.17-3.84,2.56c-1.39,2.48-2.47,5.21-3.24,8.21&#xA;		c2.75-2.58,6.79-4.34,12.09-5.27c4.97-0.88,9.16-0.33,12.59,1.65c3.43,1.97,5.49,4.92,6.18,8.84c1.25,7.1-0.76,13.8-6.02,20.1&#xA;		c-5.27,6.3-12.28,10.22-21.03,11.76c-5.05,0.89-9.5,0.74-13.36-0.47c-4.51-1.44-7.09-4.05-7.76-7.84c-0.44-2.5-0.02-4.81,1.25-6.91&#xA;		c1.48-2.42,3.74-3.9,6.77-4.44c4.04-0.71,6.33,0.45,6.86,3.5c0.25,1.42-0.37,3.06-1.86,4.93c-1.49,1.87-2.18,3.14-2.06,3.81&#xA;		c0.27,1.56,1.63,2.12,4.07,1.69c4.88-0.86,8.72-4.19,11.52-9.98c2.4-5.1,3.23-9.74,2.49-13.93c-0.69-3.92-2.85-5.56-6.47-4.93&#xA;		c-2.02,0.36-3.83,1.43-5.42,3.2c-1.6,1.78-3.02,2.78-4.29,3.01c-1.77,0.31-2.82-0.51-3.17-2.47c-0.61-3.45,1.59-10.42,6.59-20.93&#xA;		c2.03-4.26,5.01-6.74,8.97-7.44c1.68-0.3,4.21-0.38,7.57-0.24c3.36,0.14,5.89,0.06,7.57-0.24c2.27-0.4,3.98-1.29,5.13-2.68&#xA;		c1.14-1.39,2.01-2.13,2.6-2.24C131.81,108.4,132.49,108.8,132.67,109.82z"/>
	<path class="st0" d="M194.25,100.32c0.61,3.45-5.05,11.7-16.98,24.75c-9.67,10.63-16.57,20.74-20.69,30.32&#xA;		c-0.64,1.79-1.32,3.58-2.04,5.38c-0.85,2.1-1.9,3.75-3.16,4.95c-2.69,2.01-4.36,3.07-5.03,3.19c-1.09,0.19-1.76-0.39-2-1.74&#xA;		c-0.12-0.68-0.02-1.6,0.29-2.77c1.49-5.84,5.68-13.27,12.6-22.3c2.81-3.77,8.64-10.79,17.5-21.07c1.6-1.75,3.86-4.45,6.77-8.1&#xA;		c0.22-0.25,0.31-0.47,0.27-0.68c-0.07-0.41-0.49-0.54-1.24-0.41c-3.62,0.64-7.18,0.15-10.67-1.46l0.16,0.91&#xA;		c0.73,4.13-0.43,8.41-3.46,12.85c-3.24,4.76-7.34,7.57-12.31,8.45c-6.31,1.11-9.95-1.03-10.9-6.45c-0.73-4.12,0.56-8.52,3.86-13.18&#xA;		c3.3-4.66,7.48-7.44,12.53-8.33c2.69-0.47,5.89,0.18,9.59,1.97c3.7,1.79,7.23,2.39,10.6,1.79c2.86-0.51,4.89-1.56,6.08-3.16&#xA;		c0.29-0.33,0.94-1.77,1.97-4.32c0.6-1.5,1.62-2.38,3.05-2.63C192.88,97.94,193.96,98.63,194.25,100.32z M163.71,110.2&#xA;		c-0.25-1.42-1.05-2.01-2.4-1.77c-2.1,0.37-4.02,3.05-5.74,8.02c-1.56,4.46-2.15,7.74-1.78,9.83c0.24,1.35,1.03,1.91,2.38,1.67&#xA;		c2.19-0.39,4.16-3,5.91-7.84C163.56,115.73,164.11,112.43,163.71,110.2z M192.58,138.79c0.74,4.19-0.44,8.58-3.54,13.17&#xA;		c-3.3,4.91-7.52,7.81-12.65,8.72c-6.23,1.1-9.82-1.06-10.77-6.47c-0.73-4.12,0.56-8.52,3.86-13.18c3.3-4.66,7.48-7.44,12.53-8.33&#xA;		C188.14,131.62,191.67,133.65,192.58,138.79z M186,138.38c-0.26-1.49-1.07-2.11-2.41-1.88c-2.1,0.37-4.02,3.04-5.75,8.02&#xA;		c-1.56,4.46-2.15,7.74-1.78,9.83c0.25,1.42,1.05,2.01,2.4,1.77c2.19-0.39,4.15-3.03,5.89-7.94&#xA;		C185.83,143.81,186.38,140.54,186,138.38z"/>
	<path class="st0" d="M306.36,90.17c1.01,5.75-0.12,12.61-3.4,20.58c-8.38,20.37-21.66,32.16-39.84,35.37&#xA;		c-7.66,1.35-14.24,0.21-19.74-3.42c-5.2-3.4-8.35-8.25-9.46-14.54c-0.94-5.34-0.36-11.13,1.76-17.36&#xA;		c1.81-5.48,4.29-10.38,7.43-14.7c3.83-5.35,9.25-10.52,16.27-15.52c7.69-5.61,14.73-8.98,21.13-10.11&#xA;		c2.52-0.44,3.92,0.08,4.18,1.56c0.18,1.01-0.99,2.27-3.5,3.76c-11.39,6.75-19.39,16.53-23.99,29.33&#xA;		c-1.86,5.21-2.32,10.45-1.39,15.73c0.72,4.06,2.15,7.26,4.3,9.6c2.78,3,6.49,4.09,11.12,3.27c10.35-1.82,17.98-10.21,22.9-25.16&#xA;		c2.26-6.88,2.97-12.66,2.15-17.32c-0.83-4.73-3.27-6.74-7.31-6.03c-3.11,0.55-5.94,2.51-8.47,5.89c-1.95,2.72-3.34,5.65-4.18,8.79&#xA;		c-0.92,3.65-1.09,7.1-0.52,10.34c0.39,2.23,1.15,4.18,2.26,5.82c1.11,1.65,1.73,2.82,1.85,3.49c0.39,2.23-0.8,3.59-3.58,4.08&#xA;		c-3.87,0.68-6.44-2.56-7.7-9.73c-0.88-5-0.4-10.14,1.45-15.42c1.54-4.53,4.01-8.52,7.39-11.97c3.89-4.03,8.31-6.49,13.28-7.36&#xA;		c4.46-0.79,8.11,0,10.96,2.36C304.16,83.55,305.71,86.45,306.36,90.17z"/>
	<path class="st0" d="M365.7,68.62c0.08,0.47,0.12,0.92,0.11,1.34c-0.27,5.84-3.08,11.59-8.41,17.28&#xA;		c-4.54,4.77-10.42,9.09-17.63,12.94c-1.67,5.32-4.25,13.3-7.75,23.96c4.38-2.24,8.51-5.65,12.38-10.24&#xA;		c0.77-1.04,1.87-2.46,3.29-4.24c0.57-0.73,1.27-1.17,2.11-1.31c1.6-0.28,2.51,0.19,2.72,1.4c0.14,0.81-0.14,1.7-0.83,2.66&#xA;		c-3.13,4.39-6.08,7.83-8.85,10.34c-3.97,3.56-8.53,6.52-13.66,8.89c-3.44,8.56-6.51,14.78-9.2,18.67&#xA;		c-4.89,7.21-10.79,11.42-17.69,12.64c-3.87,0.68-5.94,0.25-6.22-1.31c-0.15-0.88,0.32-2.36,1.43-4.44&#xA;		c0.21-0.32,2.02-3.08,5.44-8.28c1.77-2.75,4.91-8.08,9.42-15.99c-1.83-1-2.91-2.45-3.24-4.35c-0.26-1.48,0.06-2.97,0.97-4.46&#xA;		c0.91-1.48,2.25-2.39,4.02-2.7c1.09-0.19,2.15-0.1,3.17,0.28c1.07-2.77,2.58-7.04,4.51-12.82c-3.07,1.31-5.74,3.14-8.01,5.49&#xA;		c-1.25,1.27-3.09,3.61-5.53,7.04c-0.58,0.66-1.2,1.05-1.88,1.17c-1.6,0.28-2.52-0.25-2.76-1.61c-0.13-0.74,0.04-1.47,0.53-2.18&#xA;		c4.95-7.36,11.58-12.81,19.89-16.37c3.56-10.32,6.97-18.03,10.24-23.14c5.87-9.05,13.05-14.33,21.55-15.83&#xA;		C361.61,62.44,364.91,64.16,365.7,68.62z M356.95,69.96c-0.21-1.22-0.91-1.72-2.09-1.51c-2.69,0.47-5.46,4.24-8.29,11.29&#xA;		c-1.59,4.74-3.19,9.45-4.8,14.13c6.16-3.94,10.77-9.78,13.84-17.5C356.75,73.51,357.2,71.38,356.95,69.96z"/>
	<path class="st0" d="M407.99,61.17c0.08,0.47,0.12,0.92,0.11,1.34c-0.27,5.84-3.08,11.59-8.41,17.28&#xA;		c-4.54,4.77-10.42,9.09-17.63,12.94c-1.67,5.32-4.25,13.3-7.75,23.96c4.38-2.24,8.51-5.65,12.38-10.24&#xA;		c0.77-1.04,1.86-2.46,3.29-4.24c0.57-0.73,1.27-1.17,2.11-1.31c1.6-0.28,2.51,0.19,2.72,1.4c0.14,0.81-0.14,1.7-0.83,2.66&#xA;		c-3.13,4.39-6.08,7.84-8.85,10.35c-3.97,3.56-8.53,6.52-13.66,8.89c-3.44,8.55-6.51,14.78-9.2,18.67&#xA;		c-4.89,7.21-10.79,11.42-17.69,12.64c-3.87,0.68-5.94,0.25-6.22-1.31c-0.16-0.88,0.32-2.36,1.43-4.44&#xA;		c0.21-0.32,2.02-3.08,5.44-8.28c1.77-2.75,4.91-8.08,9.42-15.99c-1.83-1-2.91-2.45-3.24-4.35c-0.26-1.48,0.06-2.97,0.97-4.46&#xA;		c0.91-1.49,2.25-2.39,4.02-2.7c1.09-0.19,2.15-0.1,3.17,0.28c1.07-2.77,2.58-7.04,4.51-12.82c-3.07,1.31-5.74,3.14-8.01,5.49&#xA;		c-1.25,1.27-3.09,3.61-5.53,7.04c-0.58,0.66-1.2,1.05-1.88,1.17c-1.6,0.28-2.52-0.25-2.76-1.61c-0.13-0.74,0.04-1.47,0.53-2.18&#xA;		c4.95-7.36,11.58-12.81,19.89-16.37c3.56-10.32,6.97-18.03,10.24-23.14c5.87-9.05,13.05-14.33,21.55-15.83&#xA;		C403.9,54.98,407.2,56.7,407.99,61.17z M399.24,62.5c-0.21-1.22-0.91-1.72-2.09-1.51c-2.69,0.47-5.46,4.24-8.29,11.29&#xA;		c-1.59,4.74-3.19,9.45-4.8,14.13c6.16-3.94,10.77-9.78,13.84-17.5C399.04,66.06,399.49,63.92,399.24,62.5z"/>
	<path class="st0" d="M415.01,108.35c0.45,2.57-0.4,5-2.55,7.3c-2.16,2.3-4.79,3.72-7.9,4.27c-2.27,0.4-4.27,0.13-6-0.82&#xA;		c-1.73-0.95-2.75-2.34-3.08-4.16c-0.44-2.5,0.42-4.9,2.57-7.2c2.15-2.3,4.79-3.72,7.9-4.27c2.27-0.4,4.27-0.14,5.99,0.77&#xA;		C413.66,105.16,414.68,106.53,415.01,108.35z M434.44,57.65c0.27,1.56-2.58,8.23-8.58,20.02c-1.47,2.98-2.95,5.93-4.43,8.84&#xA;		c-1.83,3.39-3.68,6.19-5.55,8.4c-2.14,2.61-4.44,4.13-6.88,4.56c-1.94,0.34-3.07-0.43-3.4-2.33c-0.02-0.14-0.02-0.38,0-0.73&#xA;		c-0.05-0.27-0.08-0.47-0.11-0.61c0.11-3.3,0.99-7.92,2.63-13.85c1.68-5.73,3.31-10.27,4.89-13.62c1.28-2.6,2.62-4.58,4.03-5.94&#xA;		c1.41-1.36,3.58-2.83,6.52-4.39c2.22-1.16,4.26-1.9,6.12-2.23C432.55,55.27,434.13,55.89,434.44,57.65z"/>
</g>
</svg>