<?xml version="1.0" encoding="utf-8"?>
<svg xmlns="http://www.w3.org/2000/svg" width="421" height="305" viewBox="0 0 421 305" fill="none">
<path d="M274.419 91.2294L274.279 91.0903C274.14 90.9512 273.862 90.8121 273.584 90.8121C272.611 91.0903 271.637 90.9512 270.664 90.6731C269.551 90.3949 268.438 90.2558 267.326 90.8121C266.491 90.534 265.935 90.6731 265.657 90.9512C265.24 91.3684 265.101 92.0638 265.24 92.481C265.24 93.4545 265.24 94.5671 265.24 95.5406C265.24 96.236 265.24 96.7923 265.24 97.4876C265.24 97.7658 265.24 98.183 265.379 98.4611C265.379 98.6002 265.379 98.7393 265.518 98.8784L265.657 99.2956L266.074 99.0175C266.213 99.0175 266.213 98.8784 266.352 98.8784C266.63 98.7393 266.769 98.6002 267.048 98.4611C269.551 96.375 272.054 94.2889 274.558 92.2028C274.697 92.0638 274.836 91.9247 274.836 91.7856V91.6466L274.975 91.3684L274.419 91.2294Z" fill="#FFE19A"/>
<path d="M263.431 60.2161C262.736 59.3817 261.484 59.1036 259.537 59.1036C255.087 59.1036 250.775 58.9645 246.325 58.9645C240.484 58.9645 234.643 58.8254 228.802 58.8254C225.047 58.8254 221.292 58.8254 217.537 58.8254C215.451 58.8254 213.504 58.8254 211.418 58.8254C207.941 58.8254 204.464 58.8254 201.126 58.8254C197.789 58.8254 194.451 58.8254 190.974 58.8254H171.504C161.213 58.8254 150.782 58.8254 140.491 58.8254C139.795 58.8254 139.239 58.8254 138.544 58.8254C136.736 58.8254 134.928 58.8254 133.12 58.6863C130.617 58.5473 128.252 58.5473 125.749 58.6863C124.497 58.6863 123.246 58.8254 122.133 58.8254C121.16 58.8254 121.16 59.7989 121.16 60.0771L121.02 62.7195C120.742 66.3354 120.603 69.9512 120.464 73.5671C120.325 75.236 120.325 76.7658 120.325 78.4347C120.186 81.2161 120.186 83.9976 119.908 86.779C119.491 90.9512 119.491 95.1234 119.352 99.1565C119.352 101.66 119.213 104.302 119.213 106.806C118.934 112.09 118.795 116.541 119.073 120.991C119.213 123.216 119.073 125.441 119.073 127.527C119.073 129.057 118.934 130.587 119.073 132.117C119.073 134.064 119.213 136.011 119.352 137.958C119.491 139.349 119.491 140.878 119.63 142.408C119.769 144.911 119.769 147.276 119.769 149.779C119.908 154.229 119.908 158.958 120.186 163.408C120.186 163.547 120.186 163.964 120.047 164.243C119.908 165.077 119.769 165.911 120.325 166.607C120.603 167.024 121.16 167.163 121.994 167.163C123.385 167.163 124.775 167.163 126.166 167.163C127.279 167.163 128.391 167.302 129.504 167.302C130.338 167.302 131.034 167.302 131.868 167.302C134.789 167.163 137.848 167.163 140.63 167.163C142.021 167.163 143.411 167.163 144.802 167.163C158.848 167.024 173.173 167.024 186.941 167.024C192.087 167.024 197.093 167.024 202.239 167.024H215.729C230.471 167.024 245.352 167.024 260.232 167.024C261.762 167.024 263.014 166.051 263.153 164.66C263.292 162.713 263.292 160.627 263.292 158.541C263.292 157.984 263.292 157.428 263.292 156.872C263.292 154.647 263.292 152.421 263.153 150.196C263.153 146.998 263.014 143.799 263.014 140.461C263.014 139.07 263.014 137.819 263.014 136.428C263.014 130.865 262.875 125.024 263.153 119.322C263.292 113.203 263.431 108.613 263.431 104.302C263.431 100.13 263.57 95.8188 263.709 91.6466C263.709 89.9777 263.848 88.4479 263.848 86.779C263.848 85.8055 263.987 84.693 263.987 83.7195C263.987 82.746 264.127 81.7724 264.127 80.6598C264.127 79.4082 264.266 78.0175 264.266 76.7658C264.266 75.5141 264.266 74.1234 264.405 72.8718C264.405 72.0373 264.405 71.342 264.405 70.5075C264.405 68.5605 264.544 66.4744 264.683 64.3883C264.405 62.3022 264.127 61.0506 263.431 60.2161ZM226.994 68.9777C226.716 69.2559 226.16 69.3949 225.325 69.3949C224.908 69.3949 224.63 69.3949 224.073 69.3949C223.795 69.3949 223.239 69.3949 222.822 69.3949C221.014 69.534 218.232 69.6731 215.451 70.3685C215.034 70.5075 214.477 70.6466 214.199 70.3685C214.06 70.2294 213.921 70.0903 213.782 69.6731C213.643 69.2559 213.782 68.8386 213.921 68.6996C214.06 68.4214 214.477 68.2824 215.034 68.1433C216.564 68.0042 217.954 67.7261 219.484 67.587C221.431 67.3089 223.517 67.0307 225.464 66.8916C225.603 66.8916 225.742 66.8916 225.881 66.8916C226.438 66.8916 226.855 67.0307 227.133 67.3088C227.411 67.587 227.55 67.8652 227.55 68.2824C227.272 68.4214 227.272 68.6996 226.994 68.9777ZM221.292 86.0837L221.57 86.2228C222.544 86.2228 223.378 86.2228 224.352 86.0837C226.299 85.9446 228.385 85.9446 230.471 86.2228C233.948 86.7791 236.034 89.5605 235.895 93.4546C235.756 96.097 233.53 98.0439 230.054 98.6002C223.656 99.7128 217.537 99.2956 211.418 98.8784C209.332 98.7393 207.802 97.6267 207.107 95.9579C206.133 93.1764 206.411 90.8122 207.941 88.8651C209.61 86.9181 211.696 85.9446 214.338 85.9446C214.477 85.9446 214.477 85.9446 214.617 85.9446C216.146 85.9446 217.815 85.9446 219.345 85.9446C220.04 86.0837 220.736 86.0837 221.292 86.0837ZM192.504 140.044C192.365 140.044 192.365 140.044 192.226 140.044C186.385 139.766 181.656 136.984 178.458 132.117C178.179 131.7 178.04 131.282 178.179 130.865C178.179 130.587 178.458 130.309 178.875 130.17C179.57 129.753 180.126 129.753 180.683 130.726C182.908 134.62 187.219 137.262 192.087 137.541C197.093 137.819 201.683 135.733 204.603 131.978L205.021 131.561C205.716 130.587 206.411 129.613 206.828 128.501C206.968 127.945 207.246 127.249 207.663 127.11C207.941 126.971 208.219 126.971 208.497 127.11C208.915 127.249 209.193 127.527 209.332 127.945C209.471 128.362 209.471 128.918 209.193 129.474C206.828 134.064 203.63 137.123 199.319 138.792C197.093 139.488 195.146 140.044 192.504 140.044ZM201.266 113.759C201.822 112.508 201.544 110.7 200.431 108.196C198.206 103.19 196.12 97.4877 194.034 89.9777L193.617 88.7261C192.504 84.9711 191.391 81.0771 190.696 77.183C190.557 76.4877 190.557 75.9314 190.835 75.6532C190.974 75.3751 191.252 75.236 191.53 75.236C192.504 75.0969 193.199 75.5142 193.338 76.6267C194.451 82.7459 196.259 89.0042 198.623 96.0969C200.431 101.382 202.239 106.945 204.742 112.09C205.299 113.203 204.603 113.898 203.491 114.872C203.213 115.011 203.074 115.289 202.795 115.428C199.597 118.627 195.146 118.905 190.557 119.044C189.722 119.183 188.471 118.905 187.219 118.488C186.524 118.349 185.828 118.07 185.133 117.931C184.716 117.792 184.299 117.653 184.021 117.375C183.881 117.097 183.881 116.819 183.881 116.541C184.021 116.262 184.16 115.984 184.299 115.845C184.438 115.706 184.577 115.706 184.855 115.706C185.133 115.706 185.411 115.706 185.689 115.845C189.722 117.097 193.895 116.958 199.04 115.428C200.153 115.289 200.848 114.733 201.266 113.759ZM158.153 69.6731C158.014 69.6731 158.153 69.6731 158.153 69.6731C154.259 69.6731 150.921 69.9512 147.862 70.9247C147.444 71.0638 146.749 71.2029 146.332 71.0638C146.193 70.9248 146.054 70.9248 146.054 70.6466C145.915 69.8122 146.193 68.8387 147.166 68.5605C150.504 67.7261 153.981 67.587 157.179 67.4479C157.458 67.4479 157.736 67.4479 157.875 67.3088C158.153 67.3088 158.292 67.3088 158.57 67.3088C158.848 67.3088 158.987 67.3089 159.126 67.4479C159.266 67.587 159.405 67.8651 159.405 68.4214C159.405 69.3949 159.266 69.6731 158.153 69.6731ZM147.723 86.2228C149.53 85.6665 151.338 85.9446 153.146 86.2228C153.981 86.3618 154.676 86.5009 155.511 86.5009C157.319 86.64 158.987 86.5009 160.517 86.3618C163.021 86.2228 165.385 85.9446 168.027 86.779C170.67 87.6135 173.173 88.587 173.729 91.3685C174.146 93.7327 173.451 95.6797 171.782 97.3486C169.418 99.5738 166.636 99.7128 163.716 99.7128C163.16 99.7128 162.742 99.7128 162.186 99.7128C161.213 99.7128 160.1 99.7128 158.987 99.7128C158.431 99.7128 157.736 99.7128 157.04 99.7128C155.928 99.5738 154.815 99.5738 153.703 99.7128C151.756 99.8519 149.67 99.8519 147.583 99.0175C144.802 97.9049 143.55 95.9579 143.55 92.481C143.411 89.8387 145.08 87.1963 147.723 86.2228Z" fill="#FFE19A"/>
<path d="M256.201 56.0452C254.949 55.4889 253.698 54.9326 252.585 54.5154C250.221 53.4028 247.857 52.4293 245.631 51.5949C242.572 50.3432 239.512 49.0915 236.453 47.8399C232.002 46.0319 227.413 44.0849 222.823 42.1379C221.155 41.4425 219.625 40.7472 217.956 40.0518C213.506 38.2439 208.916 36.2968 204.466 34.0717C201.545 32.6809 198.486 31.5684 195.426 30.3167C193.34 29.4823 191.254 28.6478 189.168 27.8134C184.996 26.0054 180.823 24.1975 176.79 22.5286C173.035 20.8597 169.002 19.0518 165.108 17.522C156.903 14.0452 147.724 10.1511 138.545 6.53525C137.711 6.11803 136.737 5.70082 135.903 5.2836C132.982 3.7538 130.062 2.08492 126.168 4.58824C125.333 5.14453 124.36 5.70081 123.386 6.25711C120.744 7.78691 118.102 9.3167 116.016 11.6809C111.843 16.5485 109.618 20.7207 108.784 25.4492C108.088 28.926 107.532 33.0982 108.088 37.2704C108.784 43.2505 111.426 48.8134 116.155 54.2372C116.294 54.3763 116.433 54.6544 116.572 54.7935C117.267 55.628 117.963 56.4624 119.075 56.6015C124.777 56.7405 129.784 56.8796 134.512 56.8796C136.181 56.8796 137.85 56.8796 139.519 56.7406C142.161 56.6015 144.804 56.6015 147.446 56.7406C151.201 57.0187 155.095 57.0187 158.85 56.8796C160.936 56.8796 163.161 56.8796 165.386 56.8796C169.837 56.8796 174.426 57.0187 179.016 57.0187C182.214 57.0187 185.552 57.0187 188.751 57.0187C191.949 57.0187 195.287 57.0187 198.486 57.0187H257.453L256.201 56.0452ZM128.254 11.5419C128.81 11.82 129.367 12.0982 129.367 12.9326C129.367 13.4889 129.088 13.767 128.671 14.0452C124.082 16.2704 122.413 20.7207 120.883 24.6147C120.466 25.5882 120.327 25.8664 119.631 25.7273C118.658 25.5882 117.963 25.171 118.102 22.9458C118.38 21.8333 119.214 20.7207 119.91 19.469C120.327 18.7737 120.883 18.0783 121.3 17.3829C122.413 15.2968 124.36 13.9061 126.168 12.5154C126.585 12.2372 127.002 11.9591 127.28 11.6809C127.419 11.4028 127.837 11.2637 128.254 11.5419Z" fill="#EB8923"/>
<path d="M418.081 76.629C416.968 75.3774 415.578 76.0727 414.604 76.3509C413.631 76.7681 412.518 77.0462 411.127 77.1853C407.233 77.7416 403.2 78.0198 398.472 78.0198C397.776 78.0198 397.081 78.0198 396.525 78.0198C392.353 78.0198 388.041 78.0197 383.73 77.4634C379.697 76.7681 374.829 76.629 370.24 80.384C367.876 82.331 364.816 83.7217 361.896 84.278L359.809 84.8343C355.915 85.5297 351.882 86.3641 347.988 86.9204C340.896 88.033 333.942 89.0065 326.849 89.8409C321.425 90.3972 315.723 90.8145 308.631 91.2317C304.18 91.5098 299.73 91.6489 295.28 91.6489C292.776 91.6489 290.273 91.788 287.77 91.927H287.631C287.074 91.927 286.935 92.0661 286.518 92.4833C286.379 92.6224 286.101 92.9005 285.684 93.3178L285.545 93.4568V93.5959C285.545 93.735 285.266 94.0131 284.849 94.4303C282.763 96.3773 280.538 98.1853 278.313 99.8542C275.253 102.357 272.054 105 269.273 107.781C268.995 108.059 268.578 108.199 268.16 108.199C268.021 108.199 267.743 108.059 267.465 107.781C267.048 106.947 267.187 106.391 268.021 105.834C269.968 104.722 271.637 103.053 273.028 101.662C275.949 98.7416 279.843 95.9601 283.458 93.3178C284.154 92.7615 284.849 92.3442 285.545 91.788L286.935 90.8144L285.266 91.3708C284.154 91.6489 283.041 91.6489 281.65 91.6489C279.425 91.5098 277.061 91.5098 275.253 93.4568C274.002 94.8476 272.472 95.9601 270.942 97.0727C269.829 97.9071 268.717 98.7416 267.743 99.576C267.465 99.8542 267.187 99.9933 266.909 100.271C265.935 100.967 264.962 101.801 264.823 103.053C264.684 106.252 264.545 109.45 264.545 112.51C264.545 113.622 264.545 114.735 264.545 115.848C264.545 116.126 264.545 116.265 264.545 116.543C264.545 117.516 264.405 118.49 265.101 119.046C265.657 119.603 266.492 119.742 267.882 119.603C271.359 119.324 274.975 119.603 278.591 119.881C280.399 120.02 282.207 120.159 284.154 120.159C289.021 120.298 294.028 120.437 298.896 120.576C302.929 120.715 306.823 120.854 310.856 120.854C313.081 120.993 315.306 120.993 317.531 121.132C319.896 121.271 322.26 121.41 324.624 121.41C327.266 121.55 330.048 121.55 332.69 121.55C334.081 121.55 335.472 121.55 336.862 121.55C337.419 121.55 337.697 121.41 338.114 120.854C340.339 117.516 342.008 113.483 343.121 108.059C343.399 106.808 343.677 106.391 344.511 106.252C345.346 106.112 345.763 106.53 345.902 107.781C346.458 110.841 348.127 113.205 350.631 114.457C355.22 116.682 360.227 116.682 365.929 114.318C366.207 114.179 366.902 113.901 367.18 113.761L367.458 113.622L367.18 113.344C366.902 113.066 366.068 112.788 366.068 112.788C362.452 111.814 361.756 108.616 361.478 105.695C361.2 102.218 362.73 98.8807 366.068 95.4039C366.207 95.2648 366.346 94.9866 366.624 94.7085C367.319 93.735 367.737 93.3178 368.432 93.874C368.71 94.0131 368.849 94.2913 368.849 94.4303C368.849 94.7085 368.432 95.1257 368.015 95.5429C367.598 95.8211 367.18 96.2383 367.041 96.6555C366.902 96.9336 366.902 97.0727 366.902 97.3509C366.902 97.629 366.902 97.7681 366.763 97.7681C363.425 101.245 362.73 105 364.816 109.033C365.929 111.397 368.71 110.841 369.545 110.702H369.684C370.657 110.563 372.326 110.285 372.187 108.616C371.909 105.695 373.021 103.053 373.995 100.41C374.273 99.8542 374.412 99.437 374.69 98.8807C375.803 96.0992 376.776 93.3178 375.247 90.3972C373.578 87.4767 371.074 86.086 367.876 86.3641C367.598 86.3641 367.319 86.225 367.18 86.086C367.041 85.9469 366.902 85.6687 366.902 85.2515C366.902 84.5561 367.458 84.1389 368.293 83.9999C369.127 83.8608 369.962 83.8608 370.657 83.9999C375.664 84.9734 378.584 90.3972 378.306 94.8476C378.306 95.2648 378.306 95.682 378.584 95.9601C378.862 96.0992 379.28 95.9601 379.419 95.9601C381.644 94.9866 383.869 95.1257 386.233 95.4039C386.651 95.4039 386.929 95.4039 387.346 95.5429C387.485 95.5429 387.624 95.5429 387.624 95.5429C388.319 95.5429 388.876 95.682 389.154 96.2383C389.293 96.6555 389.293 96.9336 389.015 97.3509C388.458 97.9072 387.763 98.0462 386.929 97.9071C381.227 96.5164 377.611 97.9071 375.386 102.775C375.107 103.47 374.968 103.887 375.247 104.305C375.525 104.722 376.22 104.861 376.637 104.861C377.472 104.861 378.167 104.861 379.001 104.861C380.809 104.861 382.617 105 384.425 104.722C387.346 104.444 390.545 103.887 392.353 100.689C393.465 98.8807 393.743 96.6555 393.187 94.8476C392.631 93.0396 391.24 91.6489 389.571 90.9535C388.598 90.5363 387.485 90.5363 386.511 90.6754C385.955 90.6754 385.399 90.6754 384.704 90.6754C384.008 90.5363 383.591 90.5363 383.452 89.98C383.452 89.841 383.591 89.2847 383.869 89.2847C384.982 88.7284 385.955 88.4502 386.929 88.1721C390.684 87.1985 394.578 87.0595 398.333 86.7813C402.088 86.5032 406.121 86.3641 409.876 85.3906C413.352 84.5562 415.578 83.0264 417.107 80.8012C418.915 78.8542 418.915 77.6025 418.081 76.629ZM288.048 103.887C285.405 106.112 282.763 108.199 280.26 110.424C280.26 110.424 280.121 110.424 279.982 110.563H279.843C279.843 110.563 279.843 110.563 279.703 110.563C279.564 110.424 279.425 110.424 279.425 110.285C279.008 109.45 279.564 108.477 279.982 108.199C281.79 106.669 283.737 105.139 285.684 103.748C286.24 103.331 286.657 103.053 287.213 102.636C287.352 102.497 287.492 102.357 287.77 102.357C287.77 102.357 287.77 102.357 287.909 102.357C288.048 102.357 288.187 102.497 288.326 102.636C288.604 103.47 288.187 103.887 288.048 103.887Z" fill="#FFE19A"/>
<path d="M178.736 175.51C178.736 175.232 178.736 174.814 178.736 174.536C178.736 173.841 178.736 173.006 178.736 172.311C178.736 171.337 178.597 170.225 177.902 169.669C177.484 169.251 176.65 169.112 175.676 169.251C173.868 169.39 172.061 169.39 170.253 169.39C169.418 169.39 168.584 169.39 167.61 169.39H165.941C162.047 169.39 158.153 169.39 154.259 169.529H154.12C153.425 169.529 152.451 169.53 152.173 171.059C151.339 178.986 149.392 187.053 146.193 195.536C143.133 203.602 138.822 211.39 132.981 219.457C129.782 223.907 125.749 228.357 120.604 232.947C120.186 233.225 119.908 233.642 119.908 234.059C119.908 234.337 120.186 234.616 120.604 235.033C121.299 235.45 121.855 236.006 122.551 236.424C123.663 237.258 124.776 238.092 125.888 238.788C127.418 239.761 128.948 240.874 130.617 241.986C134.928 245.046 139.517 248.384 144.385 249.496H144.663C145.776 249.775 147.027 250.053 148.279 250.053C150.087 250.053 152.034 249.496 153.842 247.271C153.981 247.132 154.12 246.993 154.259 246.715C154.537 246.437 154.676 246.159 154.955 245.88C160.378 239.622 165.107 232.529 169.418 223.907C172.756 217.231 175.259 209.861 176.928 201.794C179.153 191.364 179.71 183.159 178.736 175.51Z" fill="#F7F5F5"/>
<path d="M117.267 150.895V149.921C117.128 146.862 117.128 143.941 116.988 140.881C116.849 136.848 116.71 132.676 116.571 128.504C116.571 124.332 116.571 120.16 116.71 116.126C116.71 114.179 116.849 112.232 116.849 110.285C116.849 107.921 116.849 105.557 116.988 103.332C116.988 98.6032 117.128 93.7357 117.128 88.8681C117.128 86.0867 117.406 83.3052 117.545 80.5238C117.684 79.2721 117.684 78.0205 117.823 76.9079L118.657 60.0801C118.657 59.5238 118.657 58.9675 117.962 58.6893C116.849 58.133 116.154 57.1595 115.32 56.186C114.902 55.6297 114.485 55.0734 113.929 54.5171C110.174 50.7622 108.227 46.1728 106.697 41.5834L106.419 40.6099L106.141 41.7225C104.75 48.3979 103.916 55.3516 103.359 63.696C103.22 65.3648 103.081 67.0337 102.942 68.7026C102.664 71.7622 102.386 74.8218 102.386 78.0205C102.386 80.941 102.386 83.8615 102.247 86.643C102.247 88.1728 102.108 89.5635 102.108 91.0933C102.108 92.484 102.108 93.7357 102.108 95.1264C102.108 97.2125 102.108 99.2986 101.969 101.385C101.83 105.557 102.108 109.868 102.386 114.04C102.525 115.153 102.525 116.265 102.664 117.378C102.803 119.325 102.803 121.272 102.664 123.08C102.664 125.305 102.525 127.53 102.803 129.756C102.942 131.703 102.664 133.65 102.247 135.875C101.83 138.517 102.525 142.133 103.22 144.915L103.359 145.61C105.028 153.398 108.783 159.378 116.293 165.775C116.432 165.915 116.71 166.054 116.849 166.054C116.988 166.054 116.988 166.193 117.128 166.193L117.406 166.332L117.545 166.054C117.545 165.914 117.545 165.915 117.684 165.775C117.823 165.636 117.823 165.358 117.962 165.08C118.101 163.689 118.101 162.299 117.962 161.047C117.406 157.709 117.267 154.232 117.267 150.895ZM110.869 127.53C109.339 125.166 107.81 122.941 106.28 120.577C105.863 119.881 106.002 119.464 106.558 119.047C106.697 118.908 106.836 118.908 106.975 118.908C107.253 118.908 107.532 119.047 107.81 119.603C109.061 121.411 110.313 123.358 111.565 125.166L112.538 126.557C112.538 126.557 112.538 126.696 112.677 126.835C112.677 126.974 112.677 127.113 112.816 127.391C112.538 127.53 112.26 127.669 111.843 127.809C111.426 127.809 111.147 127.809 110.869 127.53Z" fill="#EB8923"/>
<path d="M123.108 267.295C126.445 268.825 130.061 270.077 133.399 271.328C137.571 272.858 142.021 274.388 146.194 276.474C152.591 279.673 158.988 281.481 165.108 281.759C165.942 281.759 166.637 281.759 167.194 281.62C168.584 281.62 169.836 281.62 171.088 281.341C171.366 281.341 171.644 281.341 171.783 281.202C173.174 281.063 174.565 280.924 175.26 278.838C176.233 275.639 173.869 272.858 170.949 271.745C170.531 271.606 170.114 271.467 169.558 271.189C167.194 270.355 164.829 269.381 163.021 267.573C161.631 266.182 160.796 267.017 160.101 267.573C159.962 267.712 159.823 267.851 159.684 267.851C159.267 268.13 158.988 268.686 158.71 269.242C158.571 269.52 158.432 269.798 158.293 269.937C157.18 271.606 156.346 271.328 155.79 271.05C155.512 270.911 155.233 270.633 155.233 270.494C155.233 270.216 155.512 269.798 155.929 269.381C156.068 269.242 156.207 269.103 156.346 268.825C159.545 264.375 159.545 264.096 156.763 261.176C156.346 260.759 156.068 260.62 155.651 260.62C155.233 260.62 154.816 260.898 154.399 261.315C153.982 261.732 153.704 262.01 153.286 262.428C152.313 263.54 151.2 264.653 150.088 265.626C149.671 265.904 148.697 266.6 147.863 265.765C147.584 265.626 147.584 265.348 147.584 265.07C147.584 264.792 147.723 264.514 148.002 264.375C149.531 263.262 150.922 262.01 152.313 260.62C152.869 260.063 153.286 259.646 153.843 259.229C154.26 258.812 154.399 258.255 154.399 257.56C154.26 256.586 153.565 255.613 153.147 255.335C153.008 255.196 152.869 255.196 152.73 255.057C152.035 254.639 151.2 254.222 149.949 255.335C148.28 256.586 146.333 258.116 143.968 259.368C142.995 259.785 142.578 259.924 142.161 259.229C141.743 258.533 141.882 257.977 142.717 257.421C143.412 257.004 144.108 256.447 144.803 256.03C145.916 255.335 147.028 254.5 148.141 253.805C148.28 253.805 148.28 253.666 148.419 253.666C148.975 253.249 149.949 252.692 149.531 251.58C149.253 250.606 148.419 250.467 147.723 250.467C147.584 250.467 147.445 250.467 147.306 250.328C146.472 250.189 145.637 249.911 144.803 249.633C140.353 248.242 136.041 246.712 132.147 244.209C127.975 241.706 124.22 241.845 120.465 244.765C117.823 246.712 115.876 249.355 114.068 251.858L113.79 252.275C113.651 252.553 113.372 252.831 113.094 253.11C111.982 254.5 110.452 256.308 112.121 258.533C114.624 262.288 118.24 265.07 123.108 267.295Z" fill="#FFE19A"/>
<path d="M243.545 273.554C247.578 273.137 251.75 270.355 255.366 267.991C256.618 267.156 257.87 266.322 259.121 265.487C263.293 262.567 267.744 259.646 272.611 257.699C281.79 253.944 288.187 249.911 293.055 244.627C294.724 242.819 295.558 240.872 295.141 239.342C294.863 238.229 294.168 237.534 293.055 237.117C289.717 236.004 286.24 236.143 282.485 237.673C282.207 237.812 281.929 237.951 281.512 237.951C280.399 238.368 279.148 238.786 278.591 239.759C278.313 240.454 278.313 241.289 278.731 242.401C279.009 242.958 279.148 243.653 279.148 244.209C279.148 244.348 279.148 244.488 279.148 244.627C279.148 244.905 279.287 245.322 279.148 245.461C279.009 245.6 278.87 245.6 278.731 245.6C277.618 245.6 277.062 245.461 276.923 244.488C276.783 243.792 276.644 243.236 276.505 242.54C276.366 242.401 276.366 242.123 276.366 241.845C276.366 241.428 276.227 240.872 275.949 240.593C275.81 240.454 275.532 240.454 275.254 240.454C274.976 240.593 274.558 240.593 274.141 240.593C272.889 240.733 271.36 240.872 270.942 243.097C270.664 244.348 270.942 245.6 271.082 246.713C271.221 247.269 271.221 247.825 271.36 248.382C271.36 249.077 271.082 249.355 270.386 249.494C269.83 249.633 269.413 249.216 269.413 248.66C269.274 248.242 269.274 247.825 269.134 247.408C268.856 246.295 268.717 245.322 268.717 244.209C268.717 243.236 268.578 242.541 268.161 242.262C267.744 241.845 267.048 241.984 266.631 242.123C265.936 242.262 265.797 242.262 265.658 241.984L265.519 241.706L265.24 241.845C264.267 242.401 263.711 243.097 263.572 244.209C263.293 245.739 263.572 247.13 263.711 248.521V248.66C263.85 249.911 262.876 250.468 262.459 250.607C262.32 250.607 262.181 250.607 262.181 250.607C261.903 250.468 261.764 250.05 261.625 249.633V249.494C261.346 248.66 261.207 247.686 261.207 246.435C261.207 246.295 261.207 246.017 261.346 245.6C261.485 244.905 261.625 244.209 261.207 243.792C261.068 243.653 260.79 243.514 260.373 243.653C257.591 244.488 254.949 245.461 252.446 246.574C251.194 247.13 249.803 247.686 248.552 248.103C247.995 248.242 247.578 248.521 247.022 248.66C245.353 249.355 243.684 250.05 242.015 250.189C237.982 250.468 235.618 252.971 235.34 257.143C235.201 259.507 235.618 261.593 236.035 263.819C236.174 264.931 236.452 265.905 236.591 267.017C236.87 270.633 240.068 273.554 243.545 273.554Z" fill="#FFE19A"/>
<path d="M175.399 282.872C174.842 282.594 174.147 282.733 173.73 282.872C165.942 285.097 157.736 283.984 148.697 279.812C143.69 277.448 138.544 275.501 133.538 273.554C130.617 272.441 127.558 271.329 124.637 270.077C120.465 268.408 116.154 266.322 112.816 262.706C112.121 262.011 111.425 261.176 110.73 261.315C110.313 261.315 109.895 261.594 109.478 262.15C108.644 263.123 107.114 265.07 109.061 267.017C114.207 272.302 120.882 274.805 126.167 276.474C127.419 276.892 128.531 277.17 129.783 277.587C134.929 279.117 140.074 280.786 145.081 283.15C150.644 285.792 156.346 288.296 161.63 288.296C161.909 288.296 162.187 288.296 162.465 288.296C167.75 288.156 171.505 287.878 175.121 286.349C176.65 285.653 176.372 284.541 176.233 283.845C175.816 283.289 175.677 283.15 175.399 282.872Z" fill="#F7F5F5"/>
<path d="M297.922 243.372H297.783C297.365 243.233 296.67 243.094 296.253 243.79C295.836 244.346 295.279 244.902 294.862 245.458C293.332 247.405 291.942 249.352 289.716 250.743C289.16 251.16 288.604 251.439 288.048 251.856C284.849 253.942 281.372 256.167 277.756 257.697C277.2 257.975 276.505 258.253 275.809 258.531C272.332 260.061 268.716 261.73 265.518 263.816C264.127 264.79 262.875 265.763 261.624 266.737C255.922 270.909 250.081 275.359 242.432 276.333C242.154 276.333 241.736 276.472 241.736 276.75C241.736 276.889 241.736 277.028 242.014 277.306C242.293 277.584 242.571 277.862 242.71 278.141C243.127 278.697 243.683 279.253 244.518 279.67C245.769 280.088 246.882 280.366 247.995 280.366C250.359 280.366 252.445 279.531 254.392 278.558C257.452 277.028 260.094 274.803 262.597 272.717C263.014 272.439 263.432 272.021 263.849 271.743C267.743 268.545 272.193 266.18 276.783 263.677L277.339 263.399C283.458 260.2 288.882 256.445 293.75 252.412C294.167 252.134 294.584 251.717 295.001 251.439C296.948 249.909 299.034 248.379 299.312 245.319C299.034 244.763 299.173 243.65 297.922 243.372Z" fill="#F7F5F5"/>
<path d="M380.393 114.872C378.168 114.733 376.082 114.037 373.718 112.786C372.883 112.368 371.91 112.368 371.215 112.786C370.38 113.342 369.963 114.176 369.963 115.289C369.963 115.428 369.963 115.706 370.102 115.984C370.797 119.322 373.579 119.739 375.943 120.156L376.638 120.295C376.917 120.295 377.195 120.295 377.473 120.295C378.725 120.295 380.115 119.878 381.367 118.905C382.201 118.348 382.619 117.097 382.34 115.984C381.923 115.428 381.367 115.011 380.393 114.872Z" fill="#FFE19A"/>
<path d="M388.042 106.946C387.903 106.529 386.93 106.529 386.93 106.529C384.844 106.529 382.758 106.529 380.254 106.529H377.612C376.916 106.251 376.36 106.251 376.082 106.529C375.526 106.946 375.665 107.781 375.665 108.615C375.665 109.31 375.804 110.006 375.526 110.284C375.387 110.562 375.387 110.701 375.387 110.979C375.526 111.257 375.804 111.536 376.082 111.675C376.082 111.675 376.221 111.675 376.221 111.814C377.473 112.648 379.142 112.926 380.811 112.926C383.453 112.926 386.095 111.953 387.625 110.145C388.042 109.31 388.32 108.198 388.042 106.946Z" fill="#FFE19A"/>
<path d="M259.957 238.924C259.262 237.116 258.427 235.448 257.732 233.64C255.646 228.772 253.56 223.626 251.334 218.759C250.222 216.395 249.109 214.03 247.997 211.666C246.745 209.163 245.493 206.52 244.381 203.878C242.99 200.679 241.321 197.481 239.791 194.421L239.096 193.169C234.924 184.964 231.308 178.567 227.553 172.726C227.414 172.448 227.136 172.169 226.997 171.752C226.301 170.501 225.606 168.971 223.242 169.249C222.268 169.388 221.156 169.249 220.043 169.249C218.791 169.249 217.401 169.11 216.149 169.388C215.454 169.527 214.619 169.527 213.924 169.527C212.255 169.527 210.586 169.388 209.056 170.779C207.387 172.308 205.579 173.699 203.911 174.951C203.215 175.507 202.52 176.063 201.824 176.62C201.268 177.037 200.851 177.593 201.268 178.428C201.685 179.401 202.103 180.375 202.52 181.348C203.493 183.712 204.606 186.216 205.579 188.719L205.858 189.553C207.944 195.116 210.169 200.818 212.116 206.659C214.758 214.169 217.122 221.679 219.348 228.772C221.295 234.752 223.242 241.289 225.328 248.659C225.606 249.633 225.884 250.05 226.858 250.05C226.997 250.05 226.997 250.05 227.136 250.05C231.447 249.633 235.063 249.216 238.679 248.242H238.818C245.771 246.434 252.864 244.487 259.262 240.732C260.374 240.037 260.096 239.203 259.957 238.924ZM225.189 179.123L225.05 179.401C223.242 181.487 221.016 182.878 218.791 184.408C218.513 184.686 218.096 184.825 217.818 185.103C216.983 185.242 216.705 184.825 216.427 183.991C216.427 183.852 216.288 183.712 216.288 183.573C216.149 183.434 216.288 183.295 216.288 183.295C216.427 183.017 216.844 182.878 217.122 182.739L217.262 182.6C219.209 181.904 220.738 180.514 222.268 179.262C222.685 178.984 223.103 178.567 223.52 178.289C223.659 178.15 223.659 178.15 223.798 178.01C224.215 177.593 224.632 177.315 225.05 177.315C225.189 177.315 225.467 177.315 225.606 177.593C225.884 177.732 225.884 177.871 225.884 178.15C225.884 178.428 225.467 178.845 225.189 179.123Z" fill="#F7F5F5"/>
<path d="M207.387 169.944L208.083 169.388H205.579C204.189 169.388 202.937 169.388 201.546 169.388C201.268 169.388 200.99 169.388 200.712 169.388C199.877 169.388 199.043 169.249 198.348 169.666C198.208 169.666 198.208 169.805 198.069 169.944C197.93 170.362 198.208 170.779 198.626 171.613C198.765 171.752 198.904 172.03 198.904 172.169C199.321 172.865 199.46 173.56 199.599 174.117C199.738 174.534 199.738 174.673 200.016 174.812C200.155 174.812 200.155 174.812 200.295 174.812C200.434 174.812 200.712 174.673 200.99 174.673C202.937 173.838 204.328 172.587 205.857 171.196C206.414 170.779 206.831 170.362 207.387 169.944Z" fill="#F7F5F5"/>
<path d="M160.658 95.1265C159.963 93.3186 159.963 91.7888 160.658 90.5371C161.076 89.5636 161.354 88.8683 161.076 88.4511C160.797 88.0338 159.963 87.8948 158.711 87.8948C157.321 87.8948 156.208 88.0338 154.956 88.0338C153.566 88.0338 152.314 88.0338 150.784 88.1729C147.307 88.451 145.638 90.259 145.778 93.4577C145.917 97.0736 148.698 97.4908 150.923 97.3517C151.619 97.3517 152.314 97.3517 153.009 97.3517C153.287 97.3517 153.705 97.3517 153.983 97.3517C154.539 97.3517 154.956 97.3517 155.513 97.3517C155.93 97.3517 156.486 97.3517 156.903 97.3517C157.599 97.3517 158.155 97.3517 158.85 97.3517C159.963 97.3517 160.519 97.3517 160.797 96.9345C161.215 96.5173 161.076 96.1 160.658 95.1265Z" fill="#F7F5F5"/>
<path d="M224.215 90.9492C224.493 89.9757 224.215 89.0022 223.52 88.1678C222.825 87.3334 221.712 87.0552 220.599 87.1943C219.904 87.3334 219.209 87.4724 218.374 87.6115C217.262 87.8897 216.01 88.1678 215.037 88.1678C213.09 88.1678 211.56 88.7241 210.586 89.8367C209.752 90.6711 209.335 91.7837 209.474 93.1744C209.613 95.6777 210.03 96.9294 212.533 97.2075C215.593 97.4857 218.791 97.6248 221.851 97.6248H223.103C223.103 97.6248 223.103 97.6248 223.242 97.6248C223.381 97.6248 223.659 97.6248 223.798 97.3466C223.937 97.0685 223.798 96.7903 223.659 96.6512L223.52 96.5122C222.825 95.2605 223.242 93.7307 223.798 92.2009C223.937 91.9228 224.076 91.5055 224.215 90.9492Z" fill="#F7F5F5"/>
<path d="M51.9024 301.649C50.2335 299.007 48.7038 296.364 47.8693 293.305C46.6177 289.133 46.4786 285.656 47.174 282.457C47.313 281.345 46.8958 280.649 46.0613 280.371C45.9223 280.371 45.9223 280.371 45.7832 280.371C45.6442 280.371 45.5051 280.371 45.5051 280.51C45.366 280.649 45.2269 280.788 45.2269 281.066C44.6706 283.153 44.3925 285.378 44.5315 287.742C44.6706 290.802 45.5051 293.722 46.8958 296.643C47.313 297.477 47.5912 298.312 47.8693 299.146C48.4256 300.537 48.9819 302.066 49.9554 303.318C50.6508 304.153 51.068 304.709 51.7633 304.292C52.7369 303.318 52.1806 302.206 51.9024 301.649Z" fill="#2E2E2F"/>
<path d="M42.4455 293.444C42.5846 293.027 42.3064 292.61 42.1674 292.192C42.1674 292.053 42.0283 291.914 42.0283 291.914C40.3594 288.159 39.2468 284.543 38.9687 280.928V280.649C38.9687 279.676 39.1077 278.841 38.2733 278.424C38.1342 278.424 37.9952 278.285 37.8561 278.285C37.5779 278.285 37.2998 278.285 37.2998 278.424C36.7435 278.981 36.6044 279.815 36.7435 280.788C36.7435 281.067 36.8826 281.484 36.8826 281.762C37.1607 283.153 37.4389 284.683 37.8561 286.073L37.9952 286.63C38.5515 288.716 39.2468 290.802 40.2203 292.61C40.6376 293.444 41.1938 294.139 42.0283 293.861C42.3064 293.861 42.4455 293.722 42.4455 293.444Z" fill="#2E2E2F"/>
<path d="M28.8141 290.799C28.9532 290.659 29.2313 290.659 29.3704 290.659C29.7876 290.659 30.0658 290.938 30.3439 291.355C30.483 291.494 30.483 291.633 30.622 291.911C30.7611 292.328 31.0392 292.606 31.3174 292.885C33.2644 294.553 34.377 296.64 35.6287 298.726C36.1849 299.838 36.8803 300.951 37.5757 301.924L37.7147 302.063C38.132 302.62 38.2711 302.898 38.8274 302.759C39.3836 302.481 39.3836 302.063 39.1055 301.368C38.132 298.448 36.324 295.944 34.377 293.58C34.0989 293.302 33.9598 293.024 33.6816 292.746C32.5691 291.355 31.4565 289.964 29.9267 288.852C29.5094 288.573 29.0922 288.573 28.5359 288.712C28.2578 288.852 28.2578 288.991 28.2578 289.547C28.2578 289.686 28.2578 289.686 28.2578 289.825C28.2578 289.825 28.2578 289.964 28.2578 290.103C28.2578 290.381 28.2578 290.799 28.5359 290.938C28.3969 290.938 28.5359 290.938 28.8141 290.799Z" fill="#2E2E2F"/>
<path d="M317.393 258.399C313.499 261.459 310.856 265.631 308.214 269.664L307.936 270.22C307.101 271.611 306.267 273.002 305.432 274.253C305.154 274.81 304.876 275.227 304.459 275.783C304.32 277.174 304.737 277.452 305.154 277.452C305.85 277.591 306.267 277.174 306.545 276.618C308.214 272.584 310.995 269.108 313.638 265.909C314.055 265.353 314.611 264.796 315.028 264.101C316.419 262.432 318.088 261.041 319.618 259.651C320.174 259.234 320.591 258.816 321.148 258.399C321.843 257.843 321.843 257.147 321.287 256.452C320.73 255.896 320.313 256.035 319.896 256.313C319.479 256.73 319.062 257.008 318.644 257.426C318.366 257.704 317.81 258.121 317.393 258.399Z" fill="#2E2E2F"/>
<path d="M72.9014 269.523L72.4842 269.106C69.8418 266.603 66.9213 264.378 64.0007 262.153L63.1663 261.596C62.0538 260.762 60.8021 259.927 59.8286 259.371C59.4113 259.093 59.1332 258.954 58.8551 258.815C58.4378 258.676 58.1597 258.676 58.0206 258.676C57.4643 258.676 57.3252 258.954 57.1862 259.093C56.908 259.51 57.1862 259.649 57.6034 259.927H57.7425C58.716 260.623 59.6895 261.457 60.5239 262.153C62.1928 263.404 64.0007 264.795 65.5305 266.186C66.2259 266.742 66.9213 267.298 67.6166 267.855C69.9809 269.802 72.4842 271.749 74.1531 274.391C74.4312 274.947 75.2657 275.782 76.3783 275.086C76.9345 274.808 76.7954 274.391 76.5173 273.974C76.5173 273.835 76.3783 273.835 76.3783 273.696C75.822 272.027 74.2922 270.775 72.9014 269.523Z" fill="#2E2E2F"/>
<path d="M85.5569 248.384C84.8616 247.132 84.3053 245.881 83.3318 244.768C79.9941 241.152 76.3781 237.536 73.1795 234.338C72.9013 234.06 72.6232 233.781 72.4841 233.503C71.7887 232.808 71.2324 232.113 70.398 231.695C69.7026 231.834 69.4245 231.973 69.1464 232.391C68.8682 232.808 69.1464 233.225 69.2854 233.364C69.7027 233.781 70.1199 234.338 70.5371 234.755C71.7887 236.146 73.1795 237.536 74.5702 238.788C77.9079 241.569 80.9675 245.046 83.749 249.497C84.0272 249.914 84.7225 250.748 85.696 250.331C85.9742 250.192 86.1133 250.192 86.1133 249.914C86.2523 249.636 85.9742 249.218 85.8351 248.801L85.5569 248.384Z" fill="#2E2E2F"/>
<path d="M203.213 269.661C202.935 269.522 202.657 269.522 202.239 269.8C201.822 270.078 201.405 270.496 201.127 271.191C200.849 272.164 200.57 273.138 200.292 274.112C200.014 274.946 199.736 275.919 199.597 276.754C198.484 280.37 197.789 284.125 197.233 287.741C197.094 288.436 196.955 289.131 196.815 289.688C196.815 290.244 196.815 290.8 197.094 291.078C197.233 291.217 197.511 291.357 197.928 291.357C199.18 291.357 199.18 290.522 199.319 289.549C199.319 289.41 199.319 289.27 199.319 289.131V288.714C200.292 283.151 201.266 277.31 203.074 271.886C203.074 271.747 203.213 271.608 203.213 271.33C203.352 270.913 203.63 270.357 203.491 270.078C203.63 269.939 203.491 269.8 203.213 269.661Z" fill="#2E2E2F"/>
<path d="M326.431 262.148H326.292C326.153 262.287 325.736 262.287 325.597 262.565C324.206 263.956 322.815 265.207 321.424 266.598C318.365 269.519 315.166 272.439 312.663 275.777C312.663 275.916 312.524 275.916 312.385 276.055C311.968 276.472 311.55 277.029 311.689 277.585C311.689 277.863 311.968 278.002 312.246 278.28C313.08 278.697 313.497 278.141 314.193 277.307C314.332 277.168 314.332 277.029 314.471 276.89L315.027 276.194C316.696 274.108 318.365 272.022 320.312 270.353C322.12 268.684 323.928 267.015 325.736 265.207C326.153 264.79 326.709 264.234 327.126 263.817C327.544 263.399 327.683 263.121 327.405 262.704C327.266 262.148 327.126 262.009 326.431 262.148Z" fill="#2E2E2F"/>
<path d="M45.7821 276.476C43.9741 274.668 42.1662 272.999 40.2192 271.33C39.6629 270.913 39.2456 270.496 38.6893 270.079C37.0205 268.688 35.3516 267.297 33.4045 266.324C33.2655 266.185 32.9873 266.185 32.9873 266.185C32.7092 266.185 32.5701 266.324 32.4311 266.602C32.292 266.741 32.1529 267.158 32.5701 267.575C32.8483 267.853 33.1264 267.993 33.4045 268.271C33.6827 268.549 34.0999 268.827 34.3781 269.105C35.6297 270.218 36.8814 271.191 38.1331 272.165C41.1927 274.529 44.3913 277.032 46.7555 280.509C47.1728 281.065 48.0072 281.483 48.7026 281.343C48.9807 281.343 49.398 280.926 49.2589 280.509C49.2589 279.814 48.8417 279.257 48.4244 278.979C47.4509 278.006 46.6165 277.171 45.7821 276.476Z" fill="#2E2E2F"/>
<path d="M336.862 263.401C336.723 263.401 336.584 263.262 336.445 263.262C336.306 263.262 336.166 263.262 335.888 263.401C335.054 263.679 334.359 264.097 333.663 264.514C333.385 264.653 332.968 264.931 332.69 265.07C330.464 266.183 328.657 267.852 326.988 269.52C325.736 270.633 324.345 271.885 322.955 272.858C322.676 273.136 322.12 273.554 322.12 274.249C322.12 274.527 322.259 274.944 322.398 275.222C322.676 275.501 322.815 275.64 323.094 275.64C323.65 275.64 324.206 275.223 324.484 274.805C324.763 274.527 325.18 274.11 325.458 273.832C327.822 271.468 330.325 268.964 333.524 267.434C333.802 267.295 334.08 267.156 334.359 267.017C335.61 266.461 336.862 265.905 337.418 264.653C337.418 263.958 337.14 263.54 336.862 263.401Z" fill="#2E2E2F"/>
<path d="M59.6895 273.136C58.0207 271.746 56.4908 270.216 54.961 268.686C54.6829 268.408 54.2657 268.13 53.8485 268.13C53.5703 268.13 53.4313 268.269 53.1531 268.408C52.5968 268.964 53.014 269.799 53.2922 270.216C53.5703 270.633 53.8485 270.911 54.1266 271.189C54.2657 271.328 54.4048 271.328 54.4048 271.467C55.1001 272.163 55.7955 272.858 56.4908 273.554C58.4379 275.501 60.524 277.448 62.471 279.395C62.8882 279.673 63.0273 280.229 63.3054 280.646C63.7226 281.481 64.2789 282.176 65.3915 282.176C65.5306 282.176 65.6697 282.176 65.8087 282.176C66.226 282.176 66.5041 282.176 66.6432 281.759C66.7823 280.785 66.226 280.09 65.6697 279.395C64.1399 277.03 61.9147 275.083 59.6895 273.136Z" fill="#2E2E2F"/>
<path d="M366.483 267.573C362.172 273.136 359.113 277.587 356.47 281.898C356.331 282.176 356.331 282.593 356.331 282.871C356.47 283.289 356.748 283.567 357.026 283.706C357.305 283.845 357.583 283.845 357.722 283.845C358.139 283.706 358.417 283.289 358.556 282.871C360.364 279.116 363.007 275.361 366.344 271.607C366.901 271.05 367.318 270.355 367.596 269.799C367.735 269.52 367.874 269.381 368.013 269.103C368.152 268.964 368.152 268.825 368.152 268.686C368.152 268.408 367.735 267.991 367.179 267.712C366.901 267.573 366.762 267.434 366.762 267.434C366.622 267.434 366.483 267.434 366.483 267.573Z" fill="#2E2E2F"/>
<path d="M330.604 231.835C326.571 234.2 322.955 237.259 319.756 241.292C319.617 241.431 319.478 241.57 319.339 241.709C318.783 242.266 318.226 242.683 318.644 243.517C318.783 243.935 319.339 244.352 319.617 244.352C320.174 244.352 320.591 244.074 321.008 243.517C322.121 241.57 323.233 240.319 324.485 239.345C325.319 238.65 326.015 238.094 326.849 237.398C328.24 236.147 329.77 234.895 331.438 233.921C331.717 233.782 331.995 233.365 332.134 233.087C332.273 232.67 332.134 232.392 331.995 232.113C331.717 231.696 331.299 231.418 330.604 231.835Z" fill="#2E2E2F"/>
<path d="M54.5442 277.867C54.6832 277.728 54.6833 277.589 54.8223 277.589C54.9614 277.311 54.5442 276.616 54.127 276.199C51.2064 273.417 48.2859 270.636 45.5044 267.993L42.723 265.351C42.4448 265.073 42.0276 264.934 41.7494 264.934C41.4713 264.934 41.1932 265.073 40.915 265.351C40.3587 265.907 40.776 266.463 41.3322 266.881C44.5309 269.94 47.8687 273.139 51.2064 276.059L53.2925 278.006C53.5707 278.285 53.8488 278.563 54.266 278.285C54.266 278.424 54.4051 278.146 54.5442 277.867Z" fill="#2E2E2F"/>
<path d="M303.208 261.455C304.181 260.064 305.294 258.812 306.406 257.56C307.241 256.587 308.075 255.613 308.91 254.64C309.327 254.223 309.466 253.806 309.049 253.388C308.632 252.971 308.353 253.11 307.936 253.388H307.797C305.711 254.779 304.181 256.726 302.651 258.534C301.956 259.229 301.4 260.064 300.704 260.759C299.314 262.289 298.618 263.958 298.201 265.905C298.201 266.183 298.479 266.6 298.897 266.6C299.453 266.739 299.731 266.322 300.148 265.905L300.287 265.766C300.844 265.07 301.4 264.236 301.817 263.402C302.234 262.984 302.651 262.15 303.208 261.455Z" fill="#2E2E2F"/>
<path d="M326.153 244.767C326.57 244.767 327.126 244.628 327.405 244.35C330.325 241.29 333.385 238.37 337.279 236.701H337.418C337.835 236.562 338.53 236.284 338.669 235.867C338.669 235.727 338.669 235.449 338.53 235.31C338.252 234.893 337.974 234.754 337.557 234.754C337.14 234.754 336.722 234.893 336.166 235.032C334.08 235.727 332.133 236.84 329.908 238.787C329.769 238.926 329.491 239.065 329.352 239.204C327.822 240.456 326.153 241.708 325.736 243.933C325.597 244.072 325.736 244.35 325.736 244.489C325.875 244.628 326.153 244.767 326.153 244.767Z" fill="#2E2E2F"/>
<path d="M80.6897 234.615C80.5507 235.171 80.9679 235.728 81.2461 236.145L81.5242 236.701C82.6368 238.37 83.8884 240.178 85.1401 241.708C85.4182 241.986 85.6964 242.403 85.9745 242.681C86.948 243.933 87.9216 245.184 89.4514 245.463C90.1467 245.463 90.4248 245.324 90.5639 244.906C90.703 244.35 90.4249 244.072 90.0076 243.655C89.8686 243.516 89.7295 243.377 89.5904 243.237C88.6169 241.986 87.5043 240.595 86.5308 239.343C85.4182 237.953 84.3057 236.423 83.1931 234.893C82.6368 234.198 82.2196 233.781 81.6633 233.781C81.5242 233.781 81.246 233.781 80.9679 233.92C80.9679 234.059 80.8288 234.337 80.6897 234.615Z" fill="#2E2E2F"/>
<path d="M17.4113 268.132C17.4113 267.437 16.5769 266.88 15.7424 266.463C15.4643 266.324 15.3252 266.185 15.0471 266.046C14.4908 265.629 13.9345 265.211 13.2391 264.794C10.7358 262.986 8.23251 261.178 5.31198 259.787H5.1729C5.03383 259.648 4.89475 259.648 4.75568 259.648C4.6166 259.648 4.61661 259.648 4.47754 259.787C4.19939 260.066 4.19939 260.205 4.06031 260.483V260.622C3.92124 260.9 4.75569 261.317 5.31198 261.735C5.59013 261.874 5.86827 262.013 6.00735 262.152C7.67622 263.264 9.20601 264.516 10.7358 265.768C11.8484 266.602 13.1001 267.576 14.2126 268.41C14.7689 268.827 15.6034 269.384 16.5769 269.105C17.2722 268.966 17.4113 268.688 17.4113 268.132Z" fill="#2E2E2F"/>
<path d="M213.783 271.193C213.088 270.776 212.393 271.471 212.254 271.75C211.975 272.167 211.558 272.584 211.28 273.14C210.167 274.67 208.916 276.339 207.803 278.008C207.108 279.12 206.552 280.233 205.995 281.207C205.856 281.485 205.717 281.902 205.578 282.041C205.161 283.432 205.578 283.71 205.995 283.849C206.552 283.988 207.108 283.988 207.386 283.432C209.194 279.26 211.697 275.644 214.062 272.723C214.34 272.445 214.34 272.167 214.34 271.889C214.201 271.611 213.922 271.332 213.783 271.193Z" fill="#2E2E2F"/>
<path d="M14.491 273.138C11.0142 270.495 7.12016 268.131 2.94797 266.462C2.11354 266.184 1.55726 266.045 1.14004 266.601C1.00097 266.879 0.861891 267.436 1.00096 267.714C1.14004 267.992 1.55726 268.131 2.11355 268.27C2.25262 268.27 2.25262 268.27 2.39169 268.27C2.53076 268.27 2.66984 268.27 2.80891 268.409C2.94799 268.409 3.08706 268.548 3.22614 268.548C3.64336 268.826 4.19963 268.965 4.75593 269.244C7.39831 270.356 10.7361 271.886 12.9612 274.25C13.5175 274.806 14.352 275.502 15.0473 274.946C15.1864 274.806 15.3255 274.528 15.3255 274.389C15.1864 273.833 14.7692 273.416 14.491 273.138Z" fill="#2E2E2F"/>
<path d="M369.127 275.642C368.014 276.893 366.763 278.006 366.345 279.814C366.206 280.648 366.902 281.066 367.18 281.205C367.597 281.344 367.875 281.066 368.153 280.509V280.37C369.961 277.45 372.325 274.946 375.246 272.86C375.941 272.443 375.802 272.026 375.385 271.33C375.107 271.052 374.968 270.774 374.69 270.774C374.412 270.774 374.133 270.774 373.855 271.052C372.465 272.304 371.074 273.556 369.683 274.946C369.544 275.225 369.266 275.364 369.127 275.642Z" fill="#2E2E2F"/>
<path d="M342.842 240.039C342.564 240.039 342.147 240.039 341.729 240.178C338.531 241.151 335.471 242.681 332.272 244.906C331.716 245.323 331.577 245.741 331.716 246.297C331.855 246.714 332.133 246.992 332.551 247.131C332.69 247.131 332.968 247.27 333.246 247.131C333.385 246.992 333.663 246.853 333.802 246.714C334.08 246.575 334.498 246.297 334.915 246.019C335.61 245.601 336.167 245.323 336.723 244.906C338.531 243.933 340.2 242.959 342.008 242.125C342.147 241.986 342.425 241.986 342.703 241.847C343.537 241.568 343.955 241.429 343.955 240.734C343.955 240.456 343.815 240.178 343.537 240.039C343.398 240.039 343.259 240.039 342.842 240.039Z" fill="#2E2E2F"/>
<path d="M218.234 276.617C217.677 277.173 217.26 277.73 216.704 278.286C215.73 279.26 214.896 280.233 214.061 281.207C213.922 281.485 213.644 281.624 213.505 281.902C212.81 282.597 212.114 283.432 212.114 284.544C212.114 284.683 212.114 284.683 212.114 284.822C212.114 285.24 212.253 285.796 212.671 286.074C212.81 286.213 213.366 286.074 213.505 285.935C215.591 283.432 217.816 280.65 220.041 277.869C220.32 277.591 220.32 277.313 220.32 277.034C220.32 276.756 220.18 276.617 219.902 276.478C219.207 276.061 218.651 276.061 218.234 276.617Z" fill="#2E2E2F"/>
<path d="M349.379 269.242C346.597 269.52 343.955 270.494 340.895 272.58C340.895 272.58 340.756 272.719 340.617 272.719C339.922 273.136 339.087 273.692 339.226 275.222C339.226 275.361 339.226 275.5 339.365 275.64C339.643 275.779 340.061 275.64 340.617 275.361C340.895 275.222 341.312 274.944 341.59 274.666C342.008 274.388 342.564 273.971 343.12 273.692C344.65 272.997 346.18 272.441 347.71 271.885C348.405 271.606 348.961 271.328 349.657 271.189C350.074 271.05 350.63 270.633 350.352 270.077C350.213 269.659 349.935 269.242 349.379 269.242Z" fill="#2E2E2F"/>
<path d="M11.5698 253.11C11.2917 252.97 10.8745 252.692 10.5963 252.831C10.3182 252.97 10.04 253.527 10.04 254.361C10.04 254.5 10.1791 254.639 10.4573 254.778C12.9606 255.752 14.6295 257.56 16.4374 259.229C17.1328 259.924 17.689 260.48 18.3844 261.176C18.5235 261.315 18.6626 261.593 18.8016 261.732C18.9407 262.01 19.2188 262.288 19.3579 262.288C19.497 262.288 19.7751 262.149 20.0533 262.01C20.3314 261.732 20.4705 261.593 20.4705 261.315C20.4705 260.898 20.0533 260.341 19.7751 260.063L19.6361 259.924C17.1327 257.004 14.0732 254.778 11.5698 253.11Z" fill="#2E2E2F"/>
<path d="M64.1403 240.178C67.0609 241.429 69.286 243.237 71.7893 245.74C72.2066 246.158 72.7629 246.575 73.4582 246.297C73.8755 246.019 74.0145 245.601 74.0145 245.184C74.0145 244.906 73.7364 244.489 73.4582 244.211C71.094 241.568 68.1735 239.621 65.1139 238.37H64.9748C64.8357 238.23 64.5576 238.23 64.4185 238.23H64.2794C64.1404 238.23 64.1403 238.37 64.1403 238.509V238.648C63.7231 239.343 63.5841 240.038 64.1403 240.178Z" fill="#2E2E2F"/>
<path d="M376.498 280.648C377.054 280.926 377.472 280.926 377.889 280.509C379.558 279.118 381.366 278.145 383.73 277.449C384.842 277.171 384.703 276.058 384.564 275.641C384.564 275.363 384.425 275.224 384.286 275.085C384.008 274.946 383.591 275.085 383.313 275.224H383.174C382.895 275.363 382.478 275.502 382.2 275.502C381.644 275.641 381.087 275.78 380.67 276.058C380.253 276.198 379.836 276.337 379.419 276.476C378.028 276.893 376.498 277.449 376.22 279.257C376.22 279.396 376.22 279.396 376.22 279.535C376.081 280.231 376.081 280.509 376.498 280.648Z" fill="#2E2E2F"/>
<path d="M342.146 249.913C342.146 250.052 342.146 250.191 342.286 250.33C342.564 250.608 343.12 250.608 343.815 250.469L345.206 249.913C346.736 249.357 348.544 248.8 350.213 248.244C350.769 248.105 350.769 247.688 350.63 247.132C350.63 246.714 350.352 246.714 349.935 246.714H349.796C349.517 246.714 349.378 246.714 349.1 246.714C347.292 246.714 345.623 247.271 343.954 247.688C342.842 247.966 342.286 248.8 342.146 249.913Z" fill="#2E2E2F"/>
<path d="M97.6567 242.264C97.3786 240.456 96.266 239.343 95.0143 238.092L94.7362 237.813C94.3189 237.396 94.0408 237.257 93.7627 237.257C93.6236 237.257 93.3454 237.396 93.2064 237.535C92.6501 237.952 92.3719 238.787 92.9282 239.482C93.6236 240.595 94.5971 241.568 95.5706 242.959C95.9878 243.376 96.266 243.654 96.6832 243.376C96.8223 243.376 96.8223 243.237 96.9613 243.237C97.5176 242.82 97.7958 242.82 97.6567 242.264Z" fill="#2E2E2F"/>
<path d="M168.863 85.6699C165.804 85.2527 162.605 85.2527 159.545 85.3918C158.155 85.3918 156.764 85.3918 155.512 85.3918C155.234 85.3918 154.817 85.3918 154.539 85.3918C153.982 85.3918 153.565 85.3918 153.009 85.3918C151.201 85.3918 149.393 85.5308 147.585 86.0871C144.943 87.0606 143.135 89.703 143.135 92.6236C143.135 95.9613 144.525 98.1865 147.307 99.299C149.671 100.273 152.174 100.133 154.4 99.9944C155.234 99.9944 156.069 99.8553 156.764 99.9944C157.459 99.9944 158.155 99.9944 158.711 99.9944C159.963 99.9944 160.936 99.9944 161.91 99.9944C162.466 99.9944 162.883 99.9944 163.439 99.9944C166.36 99.9944 169.28 99.9944 171.645 97.6302C173.453 95.8223 174.148 93.8752 173.731 91.511C173.314 88.1732 171.645 86.3653 168.863 85.6699ZM160.519 95.1269C160.797 95.8222 160.797 96.2395 160.519 96.6567C160.241 97.0739 159.545 97.213 158.85 97.213C158.155 97.213 157.598 97.213 156.903 97.213C156.486 97.213 155.929 97.213 155.512 97.213C155.095 97.213 154.539 97.213 154.122 97.213C153.843 97.213 153.426 97.213 153.148 97.213C152.453 97.213 151.757 97.213 151.062 97.213C148.559 97.213 146.333 96.7958 146.055 93.458C145.916 90.2593 147.446 88.4514 150.923 88.3123C152.035 88.1732 153.287 88.3123 154.4 88.3123C155.79 88.3123 157.32 88.3123 158.711 88.1732C159.267 88.0341 160.102 88.1732 160.519 88.7295C160.797 89.0076 160.936 89.564 160.38 90.5375C159.963 91.7891 159.963 93.3189 160.519 95.1269Z" fill="#2E2E2F"/>
<path d="M190.417 119.463H190.834C195.563 119.324 199.874 119.046 203.073 115.987C203.212 115.847 203.351 115.708 203.49 115.569C204.463 114.596 205.576 113.622 204.881 112.093C202.377 106.947 200.569 101.384 198.762 96.0991C196.397 89.1455 194.728 82.7481 193.616 76.6289C193.338 75.5164 192.642 74.9601 191.669 75.0991C191.252 75.0991 191.112 75.3773 190.834 75.5163C190.556 75.9336 190.556 76.4899 190.695 77.1852C191.53 81.0793 192.642 84.9733 193.755 88.7283L194.172 89.9799C196.258 97.4899 198.344 103.053 200.569 108.198C201.682 110.702 201.96 112.51 201.404 113.622C200.987 114.457 200.291 115.013 199.04 115.43C194.033 116.96 189.722 117.099 185.828 115.847C185.55 115.708 185.271 115.708 184.993 115.708C184.715 115.708 184.576 115.708 184.437 115.847C184.159 115.987 184.02 116.265 183.881 116.682C183.742 117.655 184.02 118.212 185.132 118.49C187.218 119.324 188.887 119.742 190.417 119.463Z" fill="#2E2E2F"/>
<path d="M208.357 126.835C207.94 126.696 207.662 126.696 207.384 126.835C206.966 127.113 206.688 127.669 206.41 128.365C205.993 129.477 205.298 130.451 204.602 131.285C204.463 131.424 204.324 131.563 204.185 131.702C201.543 135.179 197.37 137.265 192.781 137.265C192.503 137.265 192.225 137.265 191.807 137.265C187.079 136.987 182.768 134.484 180.543 130.59C179.986 129.616 179.43 129.477 178.457 130.033C178.039 130.312 177.9 130.59 177.761 130.868C177.622 131.285 177.761 131.702 178.178 132.12C181.377 137.126 186.245 139.908 192.086 140.186C192.225 140.186 192.225 140.186 192.364 140.186C195.145 140.186 197.092 139.629 199.039 138.934C203.351 137.265 206.688 134.206 209.053 129.477C209.331 128.921 209.331 128.365 209.192 127.808C209.192 127.391 208.913 127.113 208.357 126.835Z" fill="#2E2E2F"/>
<path d="M158.709 67.3086C158.43 67.3086 158.291 67.3086 158.013 67.3086C157.735 67.3086 157.457 67.3086 157.318 67.4477C154.119 67.4477 150.642 67.5868 147.166 68.5603C146.053 68.8384 145.775 69.951 145.914 70.7854C145.914 71.0636 146.053 71.2026 146.192 71.3417C146.609 71.6199 147.166 71.3417 147.861 71.2026C150.921 70.3682 154.119 69.951 158.013 69.951C158.013 69.951 158.013 69.951 158.152 69.951C159.404 69.951 159.543 69.5338 159.682 68.5603C159.682 68.004 159.543 67.7258 159.265 67.5868C159.126 67.3086 158.987 67.3086 158.709 67.3086Z" fill="#2E2E2F"/>
<path d="M215.313 70.3667C218.094 69.6713 220.876 69.5322 222.684 69.3932C223.24 69.3932 223.657 69.3932 224.074 69.3932C224.631 69.3932 225.048 69.3932 225.326 69.3932C226.161 69.3932 226.856 69.2541 227.134 68.976C227.412 68.6978 227.551 68.4197 227.412 68.0024C227.412 67.5852 227.273 67.168 226.995 66.8899C226.717 66.6117 226.3 66.4727 225.743 66.4727C225.604 66.4727 225.465 66.4727 225.187 66.4727C223.24 66.7508 221.154 67.0289 219.207 67.168C217.677 67.3071 216.286 67.5852 214.757 67.7243C214.2 67.7243 213.783 68.0025 213.644 68.2806C213.505 68.5588 213.366 68.976 213.505 69.3932C213.644 69.8104 213.783 69.9495 213.922 70.0885C214.339 70.6448 214.896 70.5058 215.313 70.3667Z" fill="#2E2E2F"/>
<path d="M128.253 11.4016C127.836 11.1235 127.419 11.2625 126.862 11.5407C126.445 11.8188 126.028 12.097 125.75 12.3751C123.942 13.7658 121.995 15.2956 120.882 17.2427C120.465 17.938 120.048 18.6334 119.631 19.3288C118.796 20.5804 118.101 21.693 117.684 22.8056C117.544 24.6135 117.962 25.587 119.352 25.7261C120.187 25.8652 120.465 25.448 120.743 24.4745C122.273 20.5804 124.081 16.1301 128.531 14.044C129.088 13.7659 129.366 13.3486 129.366 12.7923C129.366 12.097 128.948 11.6798 128.253 11.4016Z" fill="#2E2E2F"/>
<path d="M120.325 32.9591C119.908 32.2637 119.63 31.5684 119.212 30.873C118.934 30.3167 118.656 30.0386 118.378 30.0386C118.239 30.0386 118.239 30.0386 118.1 30.0386C117.961 30.0386 117.822 30.0386 117.543 30.1776C116.848 30.5949 116.987 31.2902 117.126 31.9856V32.1247C117.543 34.4889 118.934 36.2968 120.325 38.1048C120.881 38.9392 121.577 39.7737 122.133 40.6081C122.55 41.1644 123.245 41.4426 123.941 41.1644C124.358 41.0253 124.636 40.6081 124.636 40.33C124.358 39.4955 123.802 38.9392 123.385 38.3829C123.106 37.9657 122.689 37.6876 122.55 37.2704C121.855 35.8796 121.02 34.3498 120.325 32.9591Z" fill="#2E2E2F"/>
<path d="M123.663 47.2837C123.385 47.1446 123.107 46.8664 122.968 46.7274C120.743 44.9194 119.352 42.4161 117.822 40.1909L117.405 39.4956C117.266 39.2174 117.127 39.0784 116.849 39.0784C116.71 39.0784 116.571 39.0784 116.432 39.2174C115.875 39.4956 115.736 39.6346 115.875 39.9128C116.154 40.33 116.293 40.8863 116.432 41.3035C116.71 41.9989 116.988 42.6943 117.405 43.3896C118.657 45.6148 120.465 47.1446 122.412 48.9525C122.69 49.2307 122.968 49.5088 123.246 49.787C123.663 50.2042 124.081 50.0651 124.359 50.0651C124.915 49.926 124.915 49.787 125.193 49.2307C125.332 48.3962 124.359 47.8399 123.663 47.2837Z" fill="#2E2E2F"/>
<path d="M279.981 108.058C279.564 108.476 279.008 109.449 279.425 110.423C279.425 110.562 279.703 110.701 279.842 110.84C279.981 110.84 279.981 110.979 280.12 110.979C280.12 110.979 280.26 110.979 280.538 110.701C283.319 108.337 285.822 106.25 288.326 104.164C288.882 103.747 288.743 103.191 288.465 102.774C288.326 102.496 288.187 102.496 288.048 102.356C287.769 102.356 287.491 102.495 287.352 102.635C286.796 103.052 286.379 103.33 285.822 103.747C283.736 104.999 281.789 106.39 279.981 108.058Z" fill="#2E2E2F"/>
<path d="M215.591 172.589C215.313 172.867 215.174 173.006 214.896 173.145L214.061 173.84C211.836 175.648 209.75 177.178 207.386 178.847C206.829 179.264 206.273 180.099 206.412 180.516C206.69 181.211 207.108 181.35 207.803 181.35C208.22 181.35 209.333 180.516 210.028 179.82C210.306 179.542 210.584 179.403 210.723 179.264C213.366 177.317 215.869 175.231 218.094 173.423L218.233 173.284C218.651 173.006 218.929 172.728 218.79 172.45C218.651 172.311 218.233 171.893 217.677 171.615C216.982 171.198 216.286 171.893 215.591 172.589Z" fill="#2E2E2F"/>
<path d="M218.788 184.411C221.013 183.021 223.238 181.491 225.046 179.405C225.046 179.266 225.185 179.266 225.185 179.127C225.464 178.709 225.881 178.431 225.881 178.014C225.881 177.875 225.742 177.597 225.464 177.458C225.185 177.319 225.046 177.18 224.768 177.18C224.351 177.18 223.934 177.458 223.517 177.875C223.378 178.014 223.378 178.014 223.238 178.153C222.821 178.431 222.404 178.849 221.987 179.127C220.457 180.378 218.927 181.63 217.119 182.464H216.98C216.563 182.604 215.868 182.882 215.729 183.299C215.729 183.438 215.729 183.577 215.729 183.716C216.007 184.411 216.424 185.385 217.676 185.107C218.093 184.829 218.51 184.69 218.788 184.411Z" fill="#2E2E2F"/>
<path d="M230.054 185.8C229.637 186.079 229.219 186.357 228.802 186.635C226.855 187.747 224.908 188.999 223.657 191.085C223.239 191.641 223.239 192.059 223.239 192.337C223.378 192.615 223.517 192.754 223.935 192.893C224.074 192.893 224.352 192.893 224.491 192.893C225.047 192.476 225.604 192.059 226.299 191.641C227.968 190.39 229.776 189.138 231.166 187.33C231.305 187.052 231.445 186.635 231.166 186.496L231.027 186.357C230.61 185.8 230.332 185.661 230.054 185.8Z" fill="#2E2E2F"/>
<path d="M105.724 131.56C105.585 131.839 105.724 132.117 105.863 132.534C107.81 136.428 111.147 141.435 114.068 143.382C114.485 143.521 114.763 143.382 115.181 143.243C115.181 143.243 115.32 143.104 115.459 142.825C115.737 141.991 114.485 140.6 114.485 140.6C112.26 137.541 110.591 135.454 109.2 133.925C108.505 133.09 107.949 132.395 107.532 131.839C107.114 131.282 106.836 130.865 106.28 131.143C105.863 131.143 105.724 131.282 105.724 131.56Z" fill="#2E2E2F"/>
<path d="M106.697 109.172C106.558 109.172 106.697 109.172 106.697 109.172C106.419 109.172 106.28 109.172 106.141 109.311C105.446 109.867 105.306 110.702 105.863 111.397C106.141 111.814 106.419 112.231 106.558 112.649C107.114 113.622 107.671 114.596 108.366 115.43C108.644 115.847 109.061 116.265 109.34 116.821C110.174 118.212 111.148 119.741 112.26 119.463C112.26 119.463 112.26 119.463 112.399 119.463C112.538 119.463 112.816 119.324 112.816 119.324C112.956 119.046 112.956 118.49 112.816 118.351C110.591 115.708 108.783 112.788 107.393 110.145C107.254 109.45 106.975 109.172 106.697 109.172Z" fill="#2E2E2F"/>
<path d="M113.511 152.004C112.398 151.03 110.868 149.779 110.034 148.527C110.034 148.388 109.895 148.249 109.895 148.11C109.617 147.693 109.338 147.136 109.06 147.136C109.06 147.136 109.06 147.136 108.921 147.136C108.782 147.136 108.643 147.136 108.504 147.275C107.948 147.693 107.809 148.805 108.365 149.779C109.06 151.169 110.173 152.143 111.285 153.116C111.981 153.812 112.676 154.368 113.232 155.063C113.789 155.759 114.206 155.898 114.901 155.759C115.179 155.62 115.179 155.342 115.179 154.785C115.179 154.646 115.179 154.507 115.179 154.507C115.179 153.951 115.179 153.534 114.623 152.977C114.484 152.699 114.067 152.421 113.511 152.004Z" fill="#2E2E2F"/>
<path d="M111.704 124.883C110.453 123.075 109.201 121.128 107.949 119.32C107.671 118.903 107.254 118.625 106.976 118.625C106.837 118.625 106.698 118.625 106.419 118.764C105.724 119.181 105.585 119.877 106.002 120.572C107.532 122.936 109.062 125.301 110.592 127.526C110.87 127.804 111.148 127.943 111.704 127.804C112.121 127.665 112.539 127.526 112.817 127.248C112.817 127.108 112.678 126.552 112.4 126.274L111.704 124.883Z" fill="#2E2E2F"/>
<path d="M397.776 88.8666C401.392 88.8666 404.729 88.5885 407.928 87.8931L408.623 87.754C413.491 86.6414 419.193 85.5289 420.584 79.966C421.001 78.4361 421.279 76.7673 420.166 75.3765C418.915 73.7077 417.385 73.1514 415.299 73.7077C411.266 74.8203 406.954 75.7938 402.504 75.7938C400.557 75.7938 398.471 75.7938 396.524 75.7938C395.69 75.7938 394.994 75.7938 394.16 75.7938C389.988 75.7938 386.094 75.7938 381.921 75.5156C377.749 75.0984 373.577 76.0719 369.961 78.158C369.683 78.2971 369.544 78.4361 369.266 78.5752C363.564 81.913 357.166 83.1646 350.63 84.1381L348.683 84.4163C340.617 85.668 332.272 87.0587 323.928 87.754C316.14 88.4494 307.239 89.0057 298.339 89.2838C294.723 89.4229 290.411 89.4229 286.239 89.1448C282.762 88.8666 279.564 88.8666 276.087 88.7275C274.14 88.7275 272.054 88.5885 269.829 88.4494H269.551C268.716 88.4494 267.186 88.3103 266.491 87.3368C266.074 86.9196 265.935 86.2242 265.935 85.5289C266.074 83.7209 266.074 82.052 266.074 80.6613C266.074 79.2706 266.213 77.8798 266.213 76.35V75.3765C266.352 72.1779 266.491 68.8401 266.63 65.6414C266.908 61.6083 266.908 58.1315 263.153 56.4627C256.339 53.403 249.385 50.4825 242.709 47.562C241.597 47.1448 240.345 46.5885 239.233 46.1712C235.478 44.6414 231.723 43.1116 227.968 41.5818C224.491 40.1911 220.736 38.6613 217.259 37.1315C213.087 35.3236 208.776 33.5156 204.743 31.8467C200.709 30.1779 196.537 28.3699 192.504 26.7011C189.862 25.5885 187.219 24.615 184.716 23.5024C179.57 21.4163 174.286 19.3302 169.279 16.966C167.193 15.9924 164.968 15.0189 162.743 14.1845C160.656 13.3501 158.57 12.5156 156.484 11.5421C152.034 9.45603 147.305 7.50901 142.716 5.56199C139.378 4.17126 135.902 2.64145 132.564 1.25072C130.617 0.416286 129.226 0.138144 127.279 0.972581L126.862 1.11166C122.551 3.19776 118.517 5.28385 115.041 8.76067C110.173 13.6282 107.253 18.913 106.14 24.754C105.584 27.5355 105.166 30.317 104.749 33.0984C104.332 36.4362 103.776 40.052 103.08 43.3898C101.69 49.2309 101.272 54.9328 100.855 61.4693V61.8865C100.438 68.562 99.8817 75.3766 99.8817 82.1911C99.8817 84.5554 99.7426 86.9196 99.7426 89.2838C99.6035 92.2044 99.6035 95.1249 99.6035 98.1845C99.6035 99.7143 99.6035 101.244 99.6035 102.774C99.6035 105.833 99.6035 108.893 99.7426 111.953C99.8817 113.343 99.8817 114.734 100.021 116.125C100.299 121.132 100.716 125.86 100.855 131.423C100.994 133.092 100.994 134.622 100.994 136.151C101.133 139.211 101.133 141.992 101.69 145.886C103.776 154.509 107.67 161.184 113.928 166.469C114.345 166.886 114.762 167.304 115.18 167.721C116.431 169.112 117.822 170.641 120.047 170.085C122.551 169.529 124.915 169.529 127.279 169.529C128.392 169.529 129.504 169.529 130.617 169.529C133.815 169.39 137.153 169.39 140.213 169.39C142.438 169.39 144.802 169.39 147.027 169.39H147.166C147.862 169.39 148.418 169.529 148.835 169.946C149.253 170.363 149.392 170.92 149.392 171.754C149.253 177.178 147.723 182.463 146.193 187.469C146.054 188.026 145.776 188.721 145.637 189.277C144.385 193.449 142.716 197.761 140.213 202.35L139.657 203.324C137.849 206.939 135.902 210.555 133.537 214.032L132.981 215.006C130.756 218.343 128.392 221.82 125.471 224.602C124.776 225.297 124.08 225.992 123.385 226.688C121.438 228.774 119.352 230.86 116.709 232.251C116.153 232.529 115.736 233.224 115.736 233.78C115.736 234.476 116.153 235.31 116.709 235.728C118.378 236.84 119.908 237.814 121.716 238.926L123.802 240.317L123.524 240.456C118.239 242.82 114.206 246.853 110.451 253.529C109.617 254.92 109.06 256.588 108.504 258.118C107.809 259.926 107.253 261.873 106.14 263.542C104.888 265.489 105.306 267.297 107.253 269.244C111.842 273.694 117.266 277.032 122.968 278.701C124.498 279.118 126.166 279.674 127.696 280.092C134.511 282.039 141.464 283.986 148.001 287.184C152.034 289.131 156.484 290.244 161.63 290.383C166.358 290.522 170.531 290.105 174.425 288.992C174.564 288.992 174.703 288.853 174.981 288.853C176.372 288.436 178.041 288.019 178.319 285.655C178.458 284.403 178.18 283.151 178.041 281.9C177.902 280.787 177.623 279.674 177.623 278.562C177.762 275.363 174.842 271.052 171.782 269.661C166.915 267.575 161.213 265.35 158.014 259.787C157.319 258.535 156.206 257.562 155.233 256.449C154.815 255.893 154.259 255.476 153.842 254.92C151.895 252.833 153.147 251.721 154.537 250.469C154.815 250.191 155.094 250.052 155.372 249.774C160.239 244.767 164.411 239.343 167.888 233.502C172.756 225.297 176.372 216.675 178.736 207.913C181.517 197.482 182.352 185.661 181.378 170.92C181.378 170.363 181.378 169.946 181.656 169.668C181.935 169.39 182.352 169.39 182.769 169.39C185.411 169.39 188.054 169.251 190.696 169.251C191.392 169.251 192.087 169.251 192.921 169.251C193.895 169.251 195.007 169.251 195.425 170.502C195.842 171.615 196.259 172.588 196.676 173.701C197.65 176.343 198.762 179.125 199.875 181.767C200.709 183.853 201.683 185.8 202.517 187.747C203.908 190.668 205.299 193.728 206.411 196.926C209.193 204.297 211.835 212.085 214.339 219.873C214.617 220.986 215.034 222.098 215.451 223.211C216.703 227.105 217.955 230.999 218.928 235.032C219.623 238.231 220.597 241.429 221.431 244.489C221.849 245.88 222.266 247.41 222.683 248.8C222.683 249.078 222.822 249.218 222.822 249.496C223.378 251.443 223.657 252.973 226.577 252.833C227.133 252.833 227.829 252.694 228.524 252.694C229.915 252.555 231.166 252.416 232.557 252.555C232.974 252.555 233.392 252.694 233.531 252.833C233.67 252.973 233.67 253.39 233.531 253.807C233.113 255.337 232.557 256.867 232.696 258.396C233.253 265.211 235.339 271.608 238.955 277.588C241.041 281.065 244.1 284.82 249.524 283.708C253.835 282.734 258.007 280.787 261.902 277.867C263.57 276.615 265.1 275.363 266.63 273.973C269.69 271.33 272.749 268.688 276.504 266.88C283.18 263.681 289.716 259.509 295.974 254.224C298.756 251.86 301.259 249.496 301.676 246.019C302.233 241.151 299.173 237.953 296.67 236.006C292.637 233.085 287.769 232.807 282.067 234.893C280.815 235.449 279.425 236.006 278.173 236.423C274.835 237.814 271.358 239.204 267.604 240.039C267.464 240.039 267.325 240.039 267.186 240.178C265.656 240.595 263.988 240.873 263.014 238.648C260.372 232.39 257.59 225.853 254.67 219.456C253.279 216.535 251.888 213.615 250.358 210.694C249.246 208.608 248.133 206.383 247.16 204.158C246.325 202.35 245.491 200.542 244.657 198.734C243.266 195.814 242.014 192.754 240.484 189.833C240.067 188.999 239.511 188.026 239.094 187.191C236.729 182.602 234.226 177.873 231.306 173.562L231.027 173.284C230.332 172.171 229.358 170.78 229.637 170.085C230.054 169.251 230.888 169.39 231.862 169.529C232.418 169.529 232.974 169.668 233.392 169.529H233.531H240.902C248.272 169.529 255.504 169.529 262.875 169.529C263.849 169.529 264.544 169.251 265.1 168.833C265.517 168.416 265.656 167.721 265.656 166.886V166.052C265.517 163.827 265.378 161.602 265.517 159.377C265.517 156.873 265.517 152.84 265.378 149.781C265.239 147.694 265.378 146.304 265.378 144.774C265.378 143.522 265.378 141.992 265.378 139.906C265.378 137.542 265.378 133.231 265.239 129.198C265.239 127.112 265.1 125.026 265.1 123.079C265.1 122.383 265.239 121.827 265.517 121.549C265.796 121.271 266.352 121.132 267.047 121.132C269.133 121.271 271.219 121.271 273.305 121.271C275.392 121.271 277.478 121.41 279.564 121.41C282.623 121.549 285.683 121.688 288.743 121.827C291.941 121.966 295.14 122.244 298.339 122.244C301.815 122.383 305.431 122.522 308.908 122.661C312.802 122.8 316.835 122.939 320.868 123.079C326.292 123.357 331.716 123.774 336.862 124.052C338.809 124.191 340.06 123.913 340.895 121.966C341.173 121.132 341.59 120.436 342.007 119.741C342.981 117.933 343.954 115.986 344.233 113.761C344.372 113.204 344.511 112.648 344.928 112.509C345.206 112.37 345.623 112.648 346.041 113.065C351.186 118.489 357.723 118.489 363.981 117.516H364.259C365.372 117.377 367.041 117.237 367.597 117.794C370.656 122.383 378.166 124.052 382.756 121.132C383.729 120.575 384.425 119.463 384.703 118.211C384.842 117.098 384.703 116.125 384.147 115.29L384.008 115.151H384.286C388.18 114.317 391.378 110.423 390.822 107.224C390.683 106.112 391.1 105.555 391.796 105.138C395.829 102.913 398.749 97.9063 395.829 92.4825C395.133 91.0918 394.716 90.2573 394.994 89.562C395.272 89.0057 396.107 88.8666 397.637 88.8666C397.498 88.8666 397.637 88.8666 397.776 88.8666ZM109.06 25.1713C109.895 20.4428 112.12 16.2706 116.292 11.403C118.378 9.03881 121.021 7.50901 123.524 5.97921C124.498 5.42292 125.332 4.86663 126.306 4.31034C130.06 1.9461 132.981 3.47591 135.902 5.00571C136.736 5.42292 137.709 5.97921 138.544 6.25735C147.584 9.87325 156.902 13.7673 165.107 17.2441C169.001 18.913 172.895 20.5819 176.789 22.2507C180.822 24.0587 184.994 25.8666 189.166 27.5355C191.253 28.3699 193.339 29.2044 195.425 30.0388C198.345 31.1514 201.405 32.403 204.325 33.6547C208.776 35.7408 213.365 37.6878 217.815 39.6348C219.484 40.3302 221.014 41.0256 222.683 41.7209C227.272 43.6679 231.862 45.615 236.312 47.4229C239.372 48.6746 242.431 49.9262 245.491 51.1779C247.716 52.1514 249.941 53.1249 252.445 54.0984C253.557 54.6547 254.809 55.0719 256.06 55.6282L256.756 55.9063H198.484C195.286 55.9063 191.948 55.9063 188.749 55.9063C185.551 55.9063 182.352 55.9063 179.014 55.9063C174.425 55.9063 169.974 55.9064 165.385 55.7673C163.16 55.7673 161.074 55.7673 158.849 55.7673C155.094 55.7673 151.2 55.9063 147.445 55.6282C144.802 55.4891 142.16 55.6282 139.517 55.6282C137.849 55.6282 136.18 55.7673 134.65 55.7673C129.921 55.7673 124.915 55.6282 119.213 55.4891C118.1 55.4891 117.405 54.6547 116.709 53.8203C116.57 53.6812 116.431 53.403 116.292 53.264C111.703 47.8401 109.06 42.4163 108.365 36.2971C107.809 32.8203 108.504 28.6481 109.06 25.1713ZM118.378 59.9395C118.239 63.2772 117.961 66.615 117.822 70.0918L117.405 76.7673C117.405 78.0189 117.266 79.2706 117.127 80.3831C116.988 83.1646 116.849 85.9461 116.709 88.7275C116.57 93.5951 116.57 98.4627 116.57 103.191C116.57 105.555 116.57 107.92 116.431 110.145C116.431 112.092 116.431 114.039 116.292 115.986C116.153 120.019 116.153 124.33 116.153 128.363C116.153 132.535 116.292 136.708 116.57 140.741C116.709 143.661 116.849 146.721 116.849 149.781V150.754C116.988 154.092 116.988 157.569 117.405 160.906C117.544 162.158 117.544 163.41 117.405 164.939C117.405 165.218 117.266 165.357 117.266 165.496C117.266 165.635 117.127 165.635 117.127 165.774V165.913L116.988 165.774C116.849 165.774 116.849 165.635 116.709 165.635C116.57 165.496 116.292 165.496 116.153 165.357C109.756 159.933 105.584 152.701 103.776 143.939C103.358 141.853 103.359 139.767 103.498 137.542C103.498 136.847 103.498 136.29 103.498 135.595C103.498 132.675 103.498 131.284 103.358 130.032V129.754C103.08 126.555 102.941 123.218 102.663 120.019C102.663 119.045 102.524 117.933 102.524 116.959C102.524 115.847 102.385 114.734 102.246 113.622C101.968 109.449 101.69 105.138 101.829 100.966C101.968 98.8799 101.968 96.7938 101.968 94.7077C101.968 93.317 101.968 92.0653 101.968 90.6746C101.968 89.1448 102.107 87.615 102.107 86.2242C102.246 83.4428 102.385 80.5222 102.246 77.6017C102.246 74.5421 102.524 71.3434 102.802 68.2838C102.941 66.615 103.08 64.9461 103.219 63.2772C103.637 54.9328 104.61 47.9792 106.001 41.3037L106.14 40.7474L106.279 41.3037C107.809 45.8931 109.756 50.6216 113.511 54.2375C114.067 54.7938 114.484 55.3501 114.902 55.7673C115.736 56.7408 116.431 57.7143 117.544 58.2706C118.378 58.9659 118.378 59.5223 118.378 59.9395ZM175.676 283.708C175.815 284.403 176.094 285.516 174.703 286.072C171.087 287.602 167.332 287.88 162.047 288.019C161.769 288.019 161.491 288.019 161.213 288.019C155.928 288.019 150.226 285.516 144.663 282.873C139.656 280.509 134.372 278.979 129.365 277.31C128.113 276.893 127.001 276.615 125.749 276.198C120.604 274.529 113.928 272.026 108.782 266.88C106.974 265.072 108.365 263.264 109.2 262.29C109.617 261.873 110.034 261.595 110.451 261.595C111.147 261.595 111.842 262.29 112.398 262.986C115.736 266.463 120.047 268.549 124.219 270.357C127.14 271.608 130.2 272.721 133.12 273.833C138.127 275.78 143.272 277.727 148.279 280.092C157.458 284.403 165.663 285.377 173.451 283.151C173.868 283.012 174.564 282.873 174.981 283.151C175.537 283.151 175.676 283.429 175.676 283.708ZM153.425 258.396C153.425 258.674 153.286 259.092 152.868 259.37C152.173 260.065 151.478 260.761 150.921 261.456C149.948 262.569 148.974 263.681 147.723 264.655C147.445 264.794 147.306 265.211 147.306 265.489C147.306 265.767 147.306 266.045 147.723 266.324C148.696 267.158 149.809 266.463 150.087 266.184C151.2 265.211 152.312 264.098 153.286 262.986C153.703 262.569 153.981 262.29 154.398 261.873C154.815 261.456 155.094 261.178 155.511 261.178C155.789 261.178 156.206 261.317 156.484 261.734C159.266 264.516 159.266 264.794 156.067 269.244C155.928 269.383 155.789 269.522 155.65 269.661C155.233 270.078 154.955 270.496 154.955 270.913C154.955 271.191 155.233 271.33 155.511 271.608C156.345 272.165 157.18 271.747 158.153 270.496C158.292 270.218 158.431 269.939 158.57 269.661C158.849 269.244 159.127 268.688 159.544 268.41C159.683 268.271 159.822 268.271 159.961 268.131C160.656 267.575 161.491 266.741 162.743 268.131C164.551 269.939 167.054 270.913 169.418 271.747C169.835 271.886 170.253 272.025 170.809 272.304C173.034 273.138 176.094 275.641 175.12 279.118C174.564 281.065 173.173 281.204 171.782 281.343C171.504 281.343 171.226 281.343 171.087 281.482C169.835 281.622 168.723 281.761 167.332 281.761C166.637 281.761 165.941 281.761 165.246 281.9C159.266 281.622 152.729 279.814 146.471 276.615C142.299 274.529 137.988 272.999 133.676 271.469C130.339 270.218 126.723 268.966 123.385 267.436C118.517 265.211 114.902 262.43 112.259 258.953C110.729 256.728 112.12 255.059 113.233 253.668C113.511 253.39 113.65 253.112 113.928 252.833L114.206 252.416C116.014 249.913 117.961 247.271 120.464 245.324C124.219 242.542 127.974 242.264 132.008 244.906C135.902 247.271 140.213 248.8 144.663 250.33C145.498 250.608 146.332 250.886 147.166 251.026C147.306 251.026 147.445 251.026 147.584 251.165C148.279 251.304 148.974 251.443 149.253 252.277C149.531 253.251 148.696 253.807 148.14 254.224C148.001 254.363 148.001 254.363 147.862 254.363C146.749 255.198 145.637 255.893 144.524 256.588C143.829 257.006 143.133 257.562 142.438 257.979C141.604 258.535 141.464 259.231 141.882 260.065C142.438 260.9 143.133 260.622 143.829 260.204C146.054 258.953 148.14 257.423 149.809 256.171C150.226 255.893 150.643 255.754 150.921 255.754C151.478 255.893 151.756 256.31 152.034 256.867C152.173 257.145 152.312 257.423 152.59 257.562L152.729 257.701C152.868 257.562 153.425 257.979 153.425 258.396ZM176.65 201.794C174.981 209.721 172.339 217.231 169.14 223.767C164.968 232.251 160.239 239.482 154.815 245.741C154.537 246.019 154.398 246.297 154.12 246.575C153.981 246.714 153.842 246.853 153.703 247.132C152.451 248.522 151.339 249.079 150.087 249.079C148.835 249.079 147.723 248.522 146.471 248.105C145.637 247.827 144.802 247.41 143.968 247.132C137.988 245.184 131.729 242.125 126.027 238.509C124.915 237.814 123.802 236.979 122.69 236.145C121.994 235.727 121.438 235.171 120.743 234.754C120.325 234.476 120.186 234.198 120.186 233.92C120.186 233.502 120.464 233.224 120.882 232.807C125.888 228.078 129.921 223.767 133.259 219.178C139.1 211.112 143.411 203.324 146.61 195.257C149.948 186.774 151.895 178.708 152.59 170.78C152.729 169.39 153.564 169.39 154.259 169.39H154.398C158.292 169.39 162.325 169.251 166.08 169.251H167.749C168.584 169.251 169.418 169.251 170.392 169.251C172.2 169.251 174.008 169.39 175.815 169.112C176.789 168.973 177.484 169.112 177.902 169.529C178.597 170.085 178.597 171.198 178.736 172.171C178.736 172.867 178.736 173.701 178.736 174.396C178.736 174.675 178.736 175.092 178.736 175.37C179.57 183.158 179.014 191.224 176.65 201.794ZM200.431 174.675H200.292C200.153 174.535 200.014 174.396 199.875 173.979C199.736 173.423 199.458 172.728 199.18 172.032C199.041 171.893 199.041 171.615 198.902 171.476C198.484 170.78 198.206 170.224 198.345 169.946C198.345 169.807 198.484 169.807 198.484 169.807C199.18 169.529 200.014 169.529 200.709 169.529C200.988 169.529 201.266 169.529 201.544 169.529C202.796 169.529 204.186 169.529 205.577 169.529H207.663L207.385 169.807C206.829 170.224 206.411 170.641 205.855 171.059C204.464 172.31 202.935 173.701 200.988 174.396C200.709 174.675 200.57 174.675 200.431 174.675ZM297.643 243.377H297.782C298.756 243.655 298.895 244.489 298.756 245.184C298.478 248.105 296.531 249.635 294.584 251.165C294.166 251.443 293.749 251.86 293.332 252.138C288.604 256.171 283.041 259.926 276.921 263.125L276.365 263.403C271.776 265.906 267.464 268.132 263.431 271.469C263.014 271.747 262.597 272.165 262.18 272.443C259.676 274.529 257.034 276.754 253.974 278.284C252.027 279.257 249.941 280.092 247.577 280.092C246.464 280.092 245.352 279.953 244.239 279.396C243.405 279.118 242.988 278.562 242.57 278.006C242.292 277.727 242.153 277.449 241.736 277.171C241.597 277.032 241.597 276.893 241.597 276.754C241.597 276.476 242.014 276.476 242.153 276.337C249.802 275.363 255.643 270.913 261.345 266.741C262.597 265.767 263.988 264.794 265.239 263.82C268.299 261.595 272.054 260.065 275.531 258.535C276.226 258.257 276.782 257.979 277.478 257.701C281.094 256.032 284.431 253.946 287.769 251.86C288.325 251.443 288.882 251.165 289.438 250.747C291.663 249.357 293.193 247.41 294.584 245.463C295.001 244.906 295.418 244.35 295.974 243.794C296.67 243.237 297.226 243.377 297.643 243.377ZM261.067 243.794C261.345 244.072 261.206 244.767 261.067 245.463C261.067 245.741 260.928 246.019 260.928 246.297C260.928 247.549 261.067 248.522 261.345 249.496V249.635C261.484 250.052 261.623 250.469 261.902 250.747C262.041 250.747 262.18 250.747 262.319 250.747C262.875 250.608 263.988 250.052 263.709 248.661V248.522C263.57 247.132 263.292 245.741 263.57 244.211C263.709 243.098 264.405 242.959 264.961 242.959C265.1 242.959 265.239 242.959 265.239 242.959H265.378C265.935 242.82 267.325 242.681 268.021 243.237C268.299 243.516 268.438 243.794 268.438 244.211C268.438 245.324 268.577 246.436 268.855 247.41C268.994 247.827 268.994 248.244 269.133 248.661C269.272 249.357 269.69 249.774 270.385 249.635C271.219 249.496 271.498 249.079 271.498 248.383C271.498 247.827 271.358 247.271 271.219 246.714C271.08 245.602 270.802 244.35 271.08 243.098C271.498 241.012 272.888 240.873 274.14 240.734C274.557 240.734 274.974 240.734 275.253 240.595C275.531 240.595 275.67 240.595 275.809 240.595C276.087 240.734 276.087 241.29 276.226 241.708C276.226 241.986 276.226 242.264 276.365 242.403C276.643 242.959 276.782 243.655 276.782 244.211C276.921 245.324 277.756 245.463 278.59 245.463H278.729C279.007 245.463 279.147 245.463 279.286 245.324C279.425 245.184 279.425 244.767 279.286 244.35C279.286 244.211 279.286 244.072 279.286 243.933C279.286 243.237 279.007 242.681 278.868 241.986C278.451 240.873 278.451 240.178 278.729 239.482C279.286 238.509 280.537 238.092 281.511 237.675C281.789 237.535 282.206 237.396 282.484 237.396C286.239 235.867 289.716 235.727 293.054 236.84C294.166 237.257 294.862 237.953 295.14 238.926C295.557 240.456 294.723 242.403 293.193 244.072C288.325 249.357 282.067 253.39 272.749 257.145C267.882 259.092 263.431 262.151 259.259 264.933C258.008 265.767 256.756 266.602 255.504 267.436C251.888 269.8 247.716 272.582 243.683 272.999C240.206 272.999 237.147 270.218 236.729 266.602C236.59 265.489 236.312 264.376 236.173 263.403C235.756 261.317 235.339 259.092 235.478 256.728C235.756 252.555 237.981 250.191 242.014 249.913C243.822 249.774 245.491 249.079 247.16 248.383C247.716 248.244 248.133 247.966 248.69 247.827C249.941 247.271 251.332 246.853 252.584 246.297C255.226 245.184 257.868 244.211 260.511 243.377C260.65 243.655 260.789 243.655 261.067 243.794ZM238.955 193.171L239.65 194.423C241.18 197.482 242.849 200.681 244.239 203.88C245.352 206.522 246.604 209.165 247.855 211.668C248.968 213.893 250.08 216.396 251.193 218.761C253.418 223.628 255.504 228.774 257.59 233.641C258.286 235.449 259.12 237.118 259.815 238.926C259.955 239.343 260.233 240.039 259.398 240.456C253.001 244.211 245.908 246.158 238.955 247.966H238.815C235.2 248.939 231.584 249.357 227.272 249.774C227.133 249.774 227.133 249.774 226.994 249.774C226.16 249.774 225.882 249.357 225.604 248.522C223.517 241.012 221.431 234.615 219.623 228.635C217.398 221.542 215.034 213.893 212.392 206.522C210.445 200.82 208.219 194.979 206.133 189.416L205.855 188.582C204.882 186.079 203.769 183.575 202.796 181.211C202.378 180.237 201.961 179.264 201.544 178.29C201.266 177.595 201.683 177.039 202.1 176.761C202.796 176.204 203.491 175.648 204.186 175.092C205.855 173.701 207.663 172.31 209.471 170.92C211.001 169.668 212.531 169.668 214.2 169.668C214.895 169.668 215.729 169.668 216.425 169.529C217.676 169.251 218.928 169.39 220.18 169.39C221.153 169.39 222.266 169.529 223.378 169.39C225.604 169.112 226.299 170.502 226.994 171.893C227.133 172.171 227.272 172.588 227.551 172.867C231.166 178.569 234.782 185.105 238.955 193.171ZM263.988 64.3898C263.709 66.3368 263.709 68.4229 263.709 70.509C263.709 71.3434 263.709 72.0388 263.709 72.8732C263.709 74.1249 263.709 75.5156 263.57 76.7673C263.57 78.0189 263.57 79.4097 263.431 80.6613C263.431 81.6348 263.292 82.6083 263.292 83.7209C263.292 84.6944 263.153 85.807 263.153 86.7805C263.153 88.4494 263.014 89.9792 263.014 91.6481C262.875 95.8202 262.736 100.132 262.736 104.304C262.736 108.615 262.597 113.204 262.458 119.324C262.319 125.026 262.319 130.867 262.458 136.569C262.458 137.959 262.458 139.211 262.458 140.602C262.458 143.8 262.597 147.138 262.597 150.337C262.597 152.562 262.736 154.787 262.736 157.012C262.736 157.569 262.736 158.125 262.736 158.681C262.736 160.628 262.875 162.714 262.597 164.8C262.458 166.052 261.345 167.026 259.815 167.026C244.656 167.026 229.219 167.026 214.339 167.026H201.961C196.955 167.026 191.809 167.026 186.802 167.026C172.895 167.026 158.57 167.026 144.524 167.165C143.133 167.165 141.743 167.165 140.352 167.165C137.431 167.165 134.511 167.165 131.59 167.304C130.895 167.304 130.06 167.304 129.226 167.304C128.113 167.304 127.001 167.304 125.888 167.165C124.498 167.165 123.107 167.026 121.716 167.165C121.716 167.165 121.716 167.165 121.577 167.165C120.882 167.165 120.464 167.026 120.186 166.608C119.63 166.052 119.769 165.218 119.908 164.383C119.908 164.105 120.047 163.827 120.047 163.549C119.769 158.959 119.769 154.37 119.63 149.92C119.63 147.555 119.491 145.052 119.491 142.549C119.491 141.019 119.352 139.628 119.213 138.098C119.074 136.151 118.935 134.204 118.935 132.257C118.935 130.728 118.935 129.198 118.935 127.668C118.935 125.443 119.074 123.218 118.935 121.132C118.796 116.681 118.935 112.231 119.074 106.946C119.213 104.443 119.213 101.8 119.213 99.2971C119.213 95.264 119.352 91.0918 119.769 86.9196C120.047 84.1381 120.047 81.2176 120.186 78.5752C120.186 77.0454 120.325 75.3765 120.325 73.7077C120.464 70.0918 120.743 66.4759 120.882 62.86L121.021 60.2176C121.021 59.8004 121.16 59.105 121.855 59.105C123.107 59.105 124.358 59.105 125.471 58.9659C127.835 58.8269 130.339 58.8269 132.842 58.9659C134.65 59.105 136.458 59.105 138.266 59.105C138.961 59.105 139.517 59.105 140.213 59.105C150.504 59.105 160.935 59.105 171.226 59.105H190.696C194.034 59.105 197.372 59.105 200.849 59.105C204.186 59.105 207.524 59.105 211.001 59.105C213.087 59.105 215.173 59.105 217.398 59.105C221.153 59.105 224.908 59.105 228.663 59.105C234.504 59.105 240.484 59.2441 246.186 59.2441C250.637 59.2441 254.948 59.3832 259.398 59.3832C261.345 59.3832 262.458 59.8004 263.153 60.4958C263.988 61.052 264.266 62.3037 263.988 64.3898ZM265.935 91.6481C266.213 91.3699 266.63 91.3699 267.325 91.3699C269.551 91.3699 270.663 91.3699 272.471 91.509C272.749 91.509 273.027 91.6481 273.166 91.9262C273.166 92.2044 273.027 92.3434 272.888 92.4825C270.802 94.1514 268.855 95.9593 266.769 97.6282C266.352 97.9064 266.352 97.9064 265.935 98.1845H265.796C265.796 98.1845 265.796 98.1845 265.656 98.1845C265.517 98.0454 265.517 97.9063 265.517 97.211V97.0719C265.517 96.5156 265.517 95.9593 265.517 95.5421C265.517 94.7077 265.517 93.8732 265.517 93.0388C265.657 92.3434 265.656 91.9262 265.935 91.6481ZM381.087 119.045C379.835 119.88 378.445 120.436 377.193 120.436C376.915 120.436 376.637 120.436 376.358 120.436C376.08 120.436 375.941 120.436 375.663 120.297C373.16 119.88 370.656 119.463 369.822 116.264C369.822 115.986 369.822 115.708 369.822 115.708C369.822 114.595 370.239 113.761 371.074 113.343C371.769 112.926 372.603 112.926 373.438 113.343C375.802 114.595 378.027 115.151 380.253 115.43C381.087 115.569 381.643 115.847 381.921 116.542C382.339 117.377 381.921 118.489 381.087 119.045ZM387.345 109.867C385.815 111.675 383.173 112.648 380.67 112.648C379.14 112.648 377.471 112.231 376.219 111.535C376.219 111.535 376.08 111.535 376.08 111.396C375.802 111.257 375.524 111.118 375.524 110.84C375.524 110.701 375.524 110.423 375.663 110.284C375.941 109.867 375.941 109.31 375.941 108.754C375.941 107.781 375.941 106.668 377.61 106.668H380.253C382.756 106.668 384.842 106.668 386.928 106.668C386.928 106.668 387.902 106.668 387.902 107.085C388.18 108.198 387.901 109.171 387.345 109.867ZM387.762 87.615C386.789 87.8931 385.815 88.1712 384.703 88.7275C384.425 88.8666 384.147 89.2838 384.286 89.562C384.425 90.1183 384.842 90.2573 385.676 90.3964C386.233 90.5355 386.928 90.3964 387.484 90.3964C388.458 90.3964 389.431 90.2574 390.405 90.6746C392.074 91.3699 393.464 92.7606 394.021 94.4295C394.577 96.3765 394.299 98.4626 393.325 100.271C391.517 103.33 388.458 103.886 385.537 104.165C383.729 104.304 381.921 104.304 380.113 104.304C379.279 104.304 378.445 104.304 377.749 104.304C377.054 104.304 376.637 104.165 376.358 103.886C376.219 103.608 376.219 103.191 376.498 102.496C378.723 97.7673 382.339 96.2375 387.902 97.7673C388.875 98.0454 389.57 97.7673 390.127 97.211C390.544 96.7938 390.544 96.3765 390.405 95.9593C389.988 95.264 389.431 95.1249 388.736 95.1249C388.597 95.1249 388.458 95.1249 388.458 95.1249C388.041 95.1249 387.762 95.1249 387.345 94.9858C384.981 94.7077 382.617 94.5686 380.392 95.5421C380.253 95.6812 379.974 95.6812 379.696 95.5421C379.557 95.4031 379.418 95.1249 379.418 94.5686C379.835 88.7275 375.663 84.2772 371.63 83.5818C370.796 83.4428 369.961 83.4428 369.127 83.5818C368.431 83.7209 367.736 84.1381 367.736 84.9726C367.736 85.3898 367.875 85.807 368.014 85.9461C368.292 86.2242 368.57 86.2242 368.849 86.2242C372.047 85.9461 374.411 87.1977 376.08 90.2573C377.61 93.0388 376.637 95.8202 375.524 98.6017C375.385 99.158 375.107 99.5752 374.829 100.132C373.716 102.774 372.603 105.416 372.882 108.337C373.021 109.867 371.491 110.145 370.517 110.284H370.378C368.014 110.701 366.484 110.145 365.789 108.754C363.703 104.721 364.398 100.966 367.736 97.6282C368.014 97.3501 368.153 97.0719 368.431 96.7938L368.57 96.5156C368.709 96.3765 368.849 96.2375 368.988 96.0984C369.544 95.5421 369.961 94.9858 369.961 94.5686C369.961 94.2905 369.683 94.0123 369.266 93.7342C368.431 93.0388 367.875 93.7342 367.18 94.5686C367.041 94.8467 366.902 94.9858 366.623 95.264C363.286 98.7408 361.756 102.079 362.034 105.694C362.312 108.754 363.007 111.953 366.762 112.926C367.041 113.065 367.319 113.204 367.319 113.622C367.319 113.9 367.041 114.039 366.623 114.317C360.921 116.542 355.915 116.681 351.325 114.456C348.822 113.204 347.153 110.84 346.597 107.781C346.458 106.807 346.18 106.112 345.206 106.112C345.067 106.112 345.067 106.112 344.928 106.112C343.954 106.251 343.676 106.807 343.398 108.059C342.286 113.483 340.617 117.516 338.392 120.853C338.113 121.271 337.835 121.41 337.279 121.41C335.888 121.41 334.498 121.41 333.107 121.41C330.464 121.41 327.683 121.41 325.041 121.271C322.676 121.132 320.312 121.132 317.948 120.992C315.723 120.853 313.498 120.853 311.272 120.714C307.239 120.575 303.345 120.436 299.312 120.436C294.445 120.297 289.438 120.158 284.57 120.019C282.762 120.019 280.815 119.88 279.007 119.741C275.531 119.463 271.915 119.184 268.299 119.463C266.908 119.602 266.074 119.324 265.656 118.906C265.1 118.35 265.1 117.516 265.239 116.542C265.239 116.264 265.239 116.125 265.239 115.847C265.239 114.734 265.239 113.622 265.239 112.509C265.239 109.449 265.378 106.251 265.517 103.052C265.657 101.8 266.63 101.105 267.604 100.41C267.882 100.132 268.16 99.9925 268.438 99.7143C269.411 98.8799 270.524 98.0454 271.637 97.211C273.166 96.0984 274.696 94.9858 275.948 93.5951C277.617 92.0653 279.981 92.0653 282.345 92.0653C283.319 92.0653 284.292 92.0653 285.266 91.9262L285.822 91.7871L285.266 92.2043C280.954 95.2639 276.921 98.3236 273.445 101.8C272.054 103.191 270.385 104.86 268.438 105.973C267.464 106.529 267.325 107.224 267.743 108.198C267.882 108.476 268.16 108.615 268.438 108.615C268.855 108.615 269.411 108.476 269.69 108.198C272.471 105.277 275.67 102.774 278.729 100.271C280.955 98.4626 283.18 96.6547 285.266 94.8468C285.544 94.5686 285.544 94.5686 286.239 93.8732C286.796 93.3169 287.074 92.8997 287.352 92.7607C287.63 92.4825 287.63 92.4825 287.769 92.4825C287.769 92.4825 287.769 92.4825 287.908 92.4825C290.411 92.3434 292.915 92.3434 295.418 92.2043C299.729 92.0653 304.319 91.9262 308.769 91.7871C315.723 91.3699 321.564 90.9527 326.988 90.3964C334.08 89.562 341.034 88.5885 348.127 87.4759C352.021 86.9196 356.054 86.0851 359.948 85.3898L362.034 84.9726C365.094 84.4163 368.014 83.0255 370.378 81.0785C374.968 77.3235 379.696 77.4627 383.729 78.158C387.902 78.8534 392.352 78.8534 396.524 78.7143C397.219 78.7143 397.915 78.7143 398.471 78.7143C403.199 78.7143 407.233 78.4361 411.127 77.8799C412.517 77.7408 413.63 77.3236 414.743 77.0454C415.716 76.6282 417.107 76.0719 418.08 77.1845C418.915 78.0189 418.776 79.2706 417.941 80.8004C416.551 83.0256 414.325 84.4163 410.849 85.3898C407.094 86.3633 403.06 86.6414 399.306 86.7805C395.411 86.5024 391.517 86.7805 387.762 87.615Z" fill="#2E2E2F"/>
<path d="M230.471 86.0867C229.637 85.9476 228.942 85.8086 228.246 85.8086C226.16 85.8086 223.935 85.8086 221.571 85.8086C220.875 85.8086 220.18 85.8086 219.485 85.8086C217.955 85.8086 216.286 85.8086 214.756 85.8086C214.617 85.8086 214.617 85.8086 214.478 85.8086C211.697 85.8086 209.471 86.7821 207.942 88.7291C206.273 90.6761 205.995 93.0404 206.968 95.9609C207.803 98.4642 209.054 99.7158 210.723 99.8549C218.511 100.272 222.683 100.272 229.915 99.5768C233.392 99.2986 235.756 96.1 235.756 93.3185C236.173 89.5636 233.948 86.7821 230.471 86.0867ZM223.657 97.4907C223.657 97.6298 223.518 97.6298 223.24 97.6298H221.988C218.928 97.4907 215.73 97.4907 212.67 97.2125C210.306 97.0735 209.889 95.8218 209.75 93.3185C209.75 92.0669 210.028 90.9543 210.862 90.1198C211.836 89.1463 213.366 88.59 215.173 88.59C215.452 88.59 215.591 88.59 215.869 88.59C216.286 88.59 217.12 88.59 220.319 88.59H220.458C222.405 88.59 223.24 88.59 223.24 89.0073C223.24 89.1463 223.101 89.4245 222.962 89.4245C221.988 90.1198 221.571 92.0669 221.571 93.3185C221.71 94.9874 222.683 96.5172 223.24 96.9344C223.518 97.0735 223.796 97.2126 223.657 97.4907Z" fill="#2E2E2F"/>
</svg>